<svg version="1.1" id="Layer_1" xmlns="http://www.w3.org/2000/svg" xmlns:xlink="http://www.w3.org/1999/xlink" x="0px" y="0px"
	 width="100%" viewBox="0 0 1200 1200" enable-background="new 0 0 1200 1200" xml:space="preserve">
<path fill="#151C48" opacity="1.000000" stroke="none" 
	d="
M698.000000,1201.000000 
	C465.333344,1201.000000 233.166672,1201.000000 1.000000,1201.000000 
	C1.000000,801.000000 1.000000,401.000000 1.000000,1.000000 
	C401.000000,1.000000 801.000000,1.000000 1201.000000,1.000000 
	C1201.000000,401.000000 1201.000000,801.000000 1201.000000,1201.000000 
	C1033.500000,1201.000000 866.000000,1201.000000 698.000000,1201.000000 
M854.088074,720.875854 
	C854.335266,721.131165 854.582520,721.386536 854.783081,722.316040 
	C855.653137,723.565063 856.523193,724.814148 857.393311,726.063232 
	C858.645264,724.781067 861.030823,723.358276 860.893127,722.248413 
	C860.665955,720.417542 859.157288,718.050964 857.538452,717.285767 
	C855.965332,716.542175 852.800476,716.632263 853.812378,720.380981 
	C853.431519,720.281616 853.050720,720.182190 852.669861,720.082764 
	C852.772217,719.991455 852.882080,719.818848 852.975220,719.827393 
	C853.123596,719.841125 853.260925,719.975525 854.088074,720.875854 
M555.377014,733.299683 
	C552.559448,737.515015 549.741882,741.730408 546.183716,746.191345 
	C542.574829,747.794983 541.827698,745.933167 542.769165,743.018677 
	C543.990540,739.237305 545.913330,735.676331 547.050537,731.875732 
	C548.032959,728.592468 548.940002,725.081482 548.797729,721.716858 
	C548.603882,717.134216 545.416626,716.080078 541.374146,718.753235 
	C545.625244,719.704041 546.044678,720.533325 544.608704,724.807739 
	C542.666321,730.589294 540.464905,736.313110 539.042908,742.222595 
	C538.612183,744.012512 539.882812,747.490723 541.295776,748.117249 
	C543.008179,748.876648 545.697693,747.432434 548.599365,746.706421 
	C551.055725,744.023865 553.512085,741.341370 555.720886,739.508545 
	C555.772278,741.634277 555.458435,743.850586 555.957947,745.865234 
	C556.769226,749.137573 558.130676,749.436951 560.737549,748.155762 
	C560.385864,745.860779 559.478455,743.741577 559.881592,741.911011 
	C561.622192,734.006470 563.746460,726.186462 565.730042,718.340027 
	C562.993042,717.387512 561.364990,717.645447 560.476257,720.828003 
	C559.325806,724.947510 557.463623,728.868286 555.377014,733.299683 
M1012.863037,719.838196 
	C1016.410889,718.229858 1017.264221,719.968872 1016.315979,722.962708 
	C1015.216003,726.435852 1013.416504,729.690308 1012.355347,733.172119 
	C1011.303711,736.622681 1010.271057,740.237976 1010.269531,743.781494 
	C1010.268799,745.506165 1012.572021,748.573914 1013.949707,748.641479 
	C1016.002502,748.742188 1018.159180,746.726074 1020.271606,745.610657 
	C1020.005798,745.223999 1019.739929,744.837402 1019.474121,744.450745 
	C1017.890747,745.331299 1016.307434,746.211792 1014.724060,747.092346 
	C1014.326172,746.805176 1013.928284,746.518005 1013.530396,746.230835 
	C1014.170227,743.781372 1014.719482,741.303772 1015.468872,738.888306 
	C1016.984802,734.002136 1019.005310,729.228333 1019.995178,724.244812 
	C1020.393799,722.237671 1019.239197,718.813293 1017.674805,717.852783 
	C1016.256042,716.981689 1013.319885,718.582275 1010.430908,719.351807 
	C1007.976196,722.006714 1005.521423,724.661621 1003.409973,726.524414 
	C1005.821899,717.635071 1008.233887,708.745728 1010.622253,699.943237 
	C1006.226440,699.943237 1002.577393,699.943237 998.928284,699.943237 
	C998.946655,700.231323 998.964966,700.519348 998.983276,700.807434 
	C1001.026794,700.989929 1003.070312,701.172485 1005.598267,701.398254 
	C1001.408936,717.107178 997.352417,732.318176 993.286011,747.566162 
	C996.067566,748.691650 997.658630,748.381470 998.572998,745.250183 
	C999.776245,741.129822 1001.581848,737.185303 1003.671875,732.751343 
	C1006.488770,728.530518 1009.305603,724.309631 1012.863037,719.838196 
M509.572266,745.383484 
	C509.844269,743.884094 510.221771,742.394104 510.357452,740.882507 
	C510.482758,739.486328 510.348816,738.066833 510.329102,736.657654 
	C508.928833,737.104797 506.758026,737.142517 506.264343,738.071472 
	C504.335663,741.700928 505.589783,744.742981 509.588287,747.392273 
	C510.846741,747.787476 512.079407,748.357788 513.368103,748.547302 
	C518.578308,749.313416 524.061096,746.437317 525.728821,742.074951 
	C527.673767,736.987305 524.996216,733.868286 521.016907,731.331604 
	C520.177551,730.796509 519.164551,730.296997 518.668091,729.506836 
	C517.373474,727.446411 515.553955,725.265869 515.462463,723.069885 
	C515.408447,721.772217 518.106812,719.464722 519.808716,719.207458 
	C522.126099,718.857178 524.673767,720.030396 527.122681,720.550354 
	C526.734375,720.998413 526.346069,721.446411 525.957764,721.894470 
	C525.700195,723.781311 525.442688,725.668213 525.185181,727.555054 
	C526.564514,727.567871 529.117859,727.749329 529.143982,727.567810 
	C529.446960,725.458252 530.066345,722.966431 529.243652,721.213257 
	C527.608459,717.728516 524.004272,715.912659 520.486572,717.258545 
	C517.364929,718.452820 513.937439,720.767517 512.351746,723.557678 
	C510.476257,726.857605 511.835785,730.679932 515.451477,733.058899 
	C516.976318,734.062195 518.800964,734.988037 519.722595,736.436768 
	C520.938660,738.348389 522.469482,741.097534 521.890686,742.825500 
	C521.295471,744.602661 518.482727,746.163757 516.348389,746.741821 
	C514.447937,747.256531 512.148315,746.297791 509.572266,745.383484 
M585.470215,747.556213 
	C589.487549,749.912964 592.899292,748.207397 595.979797,745.723633 
	C601.494812,741.277039 603.826782,735.144409 604.554504,728.299438 
	C605.161438,722.591919 603.022949,718.337891 599.077454,717.206970 
	C594.551514,715.909729 590.722778,718.255127 587.288269,723.728210 
	C586.103394,717.240356 584.185303,715.179138 578.557434,718.913513 
	C584.098572,719.145813 583.149597,722.272644 582.259827,725.529846 
	C579.813782,734.484619 577.329285,743.432556 575.121277,752.447205 
	C573.878357,757.521912 573.481262,763.007080 566.212097,762.713562 
	C566.212097,762.875244 566.212097,763.036926 566.212097,763.343140 
	C572.929077,763.343140 579.634216,763.343140 586.339417,763.343140 
	C586.342773,762.992981 586.346130,762.642822 586.349487,762.292664 
	C583.515808,762.110168 580.682129,761.927612 577.362793,761.713806 
	C578.979675,755.505554 580.457581,749.830994 582.047424,743.726501 
	C583.362793,745.121460 584.229614,746.040649 585.470215,747.556213 
M639.967468,641.696167 
	C639.647095,642.134155 639.326660,642.572083 638.166687,643.066040 
	C637.165771,640.871155 635.852966,639.624146 633.045593,639.937805 
	C629.618774,640.320679 626.116516,640.028931 623.239319,640.028931 
	C623.904175,641.684204 625.060486,643.244629 625.079346,644.818726 
	C625.229187,657.304932 625.226685,669.794373 625.080933,682.280640 
	C625.062866,683.825867 623.928711,685.358032 623.398254,686.680420 
	C630.155884,686.680420 637.622742,686.680420 645.089661,686.680420 
	C645.089966,686.380066 645.090271,686.079773 645.090637,685.779419 
	C642.701904,685.779419 640.313232,685.779419 636.810364,685.779419 
	C637.590942,680.078918 638.278442,675.058167 639.335449,670.713623 
	C648.067017,674.079590 655.941528,670.691162 657.490845,662.227539 
	C658.302979,657.791077 658.223145,652.895508 657.253723,648.491760 
	C655.387390,640.013306 648.358765,637.324890 639.967468,641.696167 
M679.907532,669.030212 
	C679.992920,668.906067 680.164429,668.767456 680.146423,668.660828 
	C680.104248,668.411316 679.971252,668.177246 680.716309,668.039551 
	C685.186279,673.770264 690.994385,670.510742 695.353760,671.011841 
	C694.788513,669.251160 694.019043,667.925476 693.991211,666.584473 
	C693.860535,660.281067 693.933716,653.973450 693.933838,647.667297 
	C693.933960,639.259033 693.933838,630.850708 693.933838,622.241089 
	C688.334106,622.241089 683.313965,622.241089 679.258179,622.241089 
	C679.948486,623.782043 681.125427,625.315918 681.262451,626.937622 
	C681.568848,630.562622 681.541504,634.246399 681.245605,637.873230 
	C681.154724,638.987854 679.752197,639.995483 678.825195,640.287170 
	C669.343445,637.109741 662.007446,641.515259 661.161804,651.352173 
	C660.814392,655.392761 661.026367,659.712158 662.100159,663.596130 
	C664.340210,671.697998 672.159241,674.119690 679.907532,669.030212 
M560.396179,670.357849 
	C568.182007,673.996277 576.710999,671.478394 578.336548,664.053345 
	C579.530579,658.598877 579.469788,652.417480 578.184021,646.982117 
	C576.415466,639.506409 568.667175,637.411072 561.147400,641.817444 
	C558.616455,643.428040 559.007141,641.449707 559.003601,640.045349 
	C558.988708,634.127197 558.997314,628.208984 558.997314,622.178345 
	C553.543640,622.178345 548.767456,622.178345 544.482178,622.178345 
	C545.247498,623.419617 546.727722,624.709656 546.743713,626.017578 
	C546.912659,639.818359 546.901123,653.622681 546.721436,667.423279 
	C546.710205,668.284973 544.876770,669.122925 543.582336,670.051392 
	C543.290588,670.228577 543.143311,670.489380 544.155029,671.057983 
	C548.897827,670.736450 553.640625,670.414978 559.050964,670.058594 
	C559.271118,670.024597 559.491333,669.990662 560.396179,670.357849 
M522.370911,642.029968 
	C522.235535,642.340576 522.100098,642.651123 521.117371,642.985474 
	C520.798096,641.327759 520.241577,639.675415 520.203613,638.011292 
	C520.084229,632.774841 520.159607,627.533997 520.159607,622.252930 
	C514.723083,622.252930 510.023529,622.252930 505.985229,622.252930 
	C506.649200,623.549683 507.890747,624.855469 507.904602,626.174133 
	C508.047882,639.802368 508.051117,653.433228 507.903564,667.061340 
	C507.888794,668.427856 506.624786,669.780762 505.892334,671.235779 
	C510.681427,670.348572 516.326111,673.382385 521.142212,669.723267 
	C527.526428,674.080261 536.292053,672.119202 539.208801,665.364319 
	C542.024963,658.842346 541.923584,652.048523 539.033508,645.573608 
	C536.152222,639.118225 528.841003,637.598877 522.370911,642.029968 
M602.613403,669.600830 
	C603.033142,669.082947 603.452820,668.565125 603.705872,668.252869 
	C608.498291,673.377686 614.193665,669.938110 618.380493,670.876648 
	C617.825317,668.956421 616.926208,667.237793 616.895264,665.503662 
	C616.744934,657.091553 616.827393,648.675232 616.827393,640.132324 
	C611.516479,640.132324 606.898682,640.132324 602.731873,640.132324 
	C603.328491,641.745605 604.334778,643.280762 604.397217,644.853394 
	C604.601746,649.998291 604.751221,655.179993 604.341980,660.301147 
	C604.115051,663.140198 602.733643,665.887024 601.044556,668.828064 
	C596.543823,669.117493 597.534241,665.496155 597.465027,663.237488 
	C597.231384,655.612244 597.376038,647.975342 597.376038,640.195801 
	C591.964844,640.195801 587.041138,640.195801 583.180908,640.195801 
	C583.805603,641.721008 584.947205,643.288818 585.018494,644.903931 
	C585.260498,650.386780 584.939270,655.894226 585.173035,661.377869 
	C585.588928,671.131958 593.511841,675.073059 602.613403,669.600830 
M623.291443,722.202454 
	C622.906311,719.442383 622.423035,716.565613 618.662781,717.187622 
	C617.284241,717.415710 616.082764,718.713867 614.800537,719.523865 
	C614.939453,719.746704 615.078430,719.969543 615.217346,720.192383 
	C616.424316,720.050903 617.631287,719.909485 619.510864,719.689148 
	C619.115173,722.399902 618.991516,724.688721 618.427124,726.863098 
	C616.048401,736.026733 613.368652,745.115295 611.148132,754.315552 
	C610.052612,758.854553 609.270813,763.125549 603.101807,762.405090 
	C602.950562,762.387451 602.703430,763.190674 602.578918,763.449219 
	C609.362427,763.449219 616.107117,763.449219 622.851807,763.449219 
	C622.859436,763.066711 622.867126,762.684143 622.874756,762.301636 
	C620.019531,762.131653 617.164368,761.961670 613.830444,761.763123 
	C615.382690,755.842834 616.868652,750.175415 618.423645,744.244568 
	C624.411316,749.925537 629.317383,749.676147 634.671814,743.662903 
	C638.808594,739.017090 640.866821,733.468323 641.041687,727.272827 
	C641.242126,720.172852 639.374939,718.110107 631.347412,717.130432 
	C628.737427,719.077820 626.127502,721.025208 623.291443,722.202454 
M715.440857,669.236511 
	C716.644653,669.571289 717.999817,669.657410 719.027100,670.282410 
	C724.582214,673.662415 731.051453,672.314636 732.914612,667.191162 
	C730.074829,669.108215 728.866150,668.224854 728.891174,664.997437 
	C728.925842,660.527649 728.977417,656.054504 728.849976,651.587708 
	C728.586548,642.354431 725.313965,639.241333 715.147461,639.013367 
	C712.208984,639.451904 708.792908,639.114990 706.466492,640.547546 
	C704.147278,641.975769 702.283020,644.992432 701.498169,647.685425 
	C701.134399,648.933899 703.507446,652.014832 705.180481,652.539062 
	C706.951843,653.094055 710.040222,652.200500 711.284424,650.806824 
	C712.270142,649.702820 711.339294,646.887085 711.258057,644.831482 
	C711.206787,643.534424 711.152771,642.237549 711.099976,640.940613 
	C712.680420,641.100586 714.260864,641.260620 715.920410,642.303711 
	C716.196960,646.699402 716.473511,651.095154 716.735352,655.256836 
	C711.981628,656.066345 707.837952,656.396545 703.934570,657.544128 
	C700.168884,658.651184 699.344666,661.945740 699.800964,665.592712 
	C700.333130,669.846130 703.304138,671.317993 707.006287,671.859131 
	C711.529907,672.520203 713.351929,671.755981 714.673035,668.868042 
	C714.673035,668.868042 714.611633,668.911194 715.440857,669.236511 
M333.494141,766.934448 
	C341.318237,766.627563 349.149902,766.448669 356.965027,765.989380 
	C378.987518,764.695129 400.723694,761.718140 421.481323,753.796448 
	C437.625122,747.635376 451.890533,738.866516 461.998291,724.274170 
	C473.106750,708.237122 476.490936,690.315247 476.163269,671.207642 
	C475.705994,644.542419 464.307098,624.223206 441.693939,610.227234 
	C424.493378,599.581421 405.242706,595.115540 385.562317,592.038818 
	C384.436127,591.862793 383.339905,591.495300 382.224091,591.215515 
	C392.744232,588.102844 403.072144,585.493042 413.080109,581.973511 
	C425.723389,577.527283 436.650299,570.116211 444.856537,559.427429 
	C460.810791,538.646851 462.829681,515.032654 456.749695,490.574799 
	C451.112671,467.898773 434.754944,454.744171 413.819366,446.736206 
	C389.961670,437.610413 364.851257,435.459625 339.656189,435.240814 
	C289.496399,434.805115 239.330780,435.040283 189.167572,435.010284 
	C188.216003,435.009735 187.264343,435.157318 186.313599,435.235657 
	C186.313599,438.279602 186.313599,441.002625 186.313599,444.134705 
	C196.545898,444.134705 206.470093,444.134705 216.496750,444.134705 
	C216.496750,548.936523 216.496750,653.317505 216.496750,758.104980 
	C206.231339,758.104980 196.298340,758.104980 186.295212,758.104980 
	C186.295212,761.242737 186.295212,763.966614 186.295212,766.940125 
	C235.225632,766.940125 283.860931,766.940125 333.494141,766.934448 
M737.105713,637.298584 
	C736.485779,638.497864 735.865845,639.697144 735.512451,640.380737 
	C736.008240,641.643738 736.981201,643.028320 737.031616,644.445801 
	C737.220337,649.755249 737.059204,655.075928 737.118042,660.391418 
	C737.231079,670.607666 743.981140,674.793884 752.628357,670.998047 
	C746.144897,661.674683 750.913635,651.295654 749.197021,641.396851 
	C752.446533,641.188049 754.861816,641.032837 757.277100,640.877625 
	C757.276917,640.670715 757.276733,640.463867 757.276489,640.257019 
	C754.720947,640.075195 752.165344,639.893372 749.178040,639.680786 
	C749.178040,635.997925 749.178040,632.591553 749.178040,628.741699 
	C746.421387,629.335205 744.211670,629.969543 741.957642,630.260742 
	C738.209229,630.744873 736.292603,632.476868 737.105713,637.298584 
M769.982422,640.200562 
	C761.098267,644.552795 757.696716,654.171936 761.827454,663.261902 
	C765.077759,670.414490 774.728577,673.738586 782.390198,670.344482 
	C774.489319,669.318237 772.081787,665.091919 773.437683,654.043945 
	C776.323669,654.043945 779.276367,654.043945 782.229065,654.043945 
	C785.167358,654.043945 788.105713,654.043945 790.988281,654.043945 
	C791.531494,644.316284 787.546692,639.581177 778.636536,639.160645 
	C776.029480,639.037476 773.385803,639.691223 769.982422,640.200562 
M666.705261,743.199036 
	C670.890076,738.261658 672.795227,732.591553 672.017700,726.132812 
	C671.066772,718.233521 664.490051,714.815552 657.479614,718.511536 
	C650.352539,722.268982 645.594849,732.296570 647.231323,740.111511 
	C648.858154,747.880066 655.515625,750.876709 662.340759,746.828003 
	C663.749695,745.992249 664.926697,744.765503 666.705261,743.199036 
M884.965698,732.232361 
	C884.085083,734.149475 882.870911,735.986267 882.386353,737.998840 
	C880.942444,743.995544 880.444946,750.317993 878.237610,755.991882 
	C877.130615,758.837585 873.394836,761.159790 870.321533,762.578003 
	C868.006531,763.646179 865.664856,762.437683 867.274292,758.813477 
	C867.781128,757.672241 867.643066,755.979858 867.169189,754.791199 
	C866.964600,754.278076 864.635071,753.886780 864.185059,754.342651 
	C863.141113,755.400269 862.067993,757.001892 862.055420,758.392456 
	C862.023193,761.936523 864.426331,763.630127 867.725159,764.230286 
	C874.445068,765.453186 880.790649,761.797729 883.906128,753.027405 
	C887.930542,741.698608 890.800354,729.959595 894.158325,718.428040 
	C890.681213,717.251648 889.252625,718.027527 888.582825,721.106201 
	C887.811340,724.652344 886.377197,728.054199 884.965698,732.232361 
M796.716064,717.081421 
	C792.861755,719.254700 793.371948,721.453613 796.550110,723.872314 
	C797.758667,724.792053 799.415283,725.966675 799.615417,727.224304 
	C800.569458,733.220276 793.192932,744.627625 787.348572,746.364502 
	C785.915894,746.790283 783.620361,746.888000 782.798950,746.063354 
	C781.994141,745.255371 782.132507,742.932190 782.612061,741.532837 
	C783.847961,737.926636 785.867065,734.564880 786.879333,730.913208 
	C787.786560,727.640320 788.183655,724.082703 787.951477,720.709473 
	C787.861206,719.398682 785.172546,717.064087 784.122131,717.291870 
	C782.358643,717.674438 780.962158,719.738220 779.396484,721.077332 
	C779.317322,721.145142 779.071899,721.089294 778.952515,721.013916 
	C778.876465,720.965881 778.890198,720.775574 778.831909,720.497437 
	C780.496765,720.043152 782.159851,719.589355 784.882324,718.846497 
	C784.521179,721.315125 784.542358,723.199158 783.944336,724.860352 
	C782.427734,729.072754 780.398438,733.109131 779.021484,737.360779 
	C777.825928,741.052063 777.039673,745.259583 781.123108,747.705444 
	C785.079834,750.075500 789.092163,748.351929 792.159058,745.664795 
	C798.888184,739.769165 802.149780,732.086914 802.053528,723.130859 
	C802.021851,720.182678 801.105713,717.472839 796.716064,717.081421 
M929.921570,710.546631 
	C930.615967,707.706726 931.310425,704.866821 932.004822,702.026917 
	C931.291260,701.684814 930.577759,701.342712 929.864258,701.000610 
	C924.319031,704.764343 926.203613,712.563904 923.051086,717.634705 
	C921.499878,717.973022 919.948669,718.311401 918.397400,718.649719 
	C918.458435,718.970947 918.519409,719.292175 918.580444,719.613464 
	C919.836670,719.867981 921.092957,720.122498 922.585388,720.424927 
	C921.750610,723.512878 920.902954,726.364685 920.216125,729.254761 
	C919.143799,733.766235 917.720703,738.270630 917.391602,742.846008 
	C917.255127,744.742737 919.143250,747.794861 920.869934,748.524414 
	C922.511536,749.217957 925.143738,747.566956 927.340332,746.946838 
	C927.211853,746.423279 927.083374,745.899780 926.954895,745.376282 
	C924.758484,745.239685 920.355225,748.597656 921.444153,742.961914 
	C922.939453,735.223389 925.317932,727.655518 927.240234,720.311279 
	C930.318115,719.992310 932.719360,719.743530 935.120544,719.494690 
	C935.088989,719.070435 935.057434,718.646118 935.025818,718.221802 
	C932.788940,718.069763 930.552063,717.917786 927.997986,717.744202 
	C928.610474,715.462769 929.164612,713.398621 929.921570,710.546631 
M716.942505,704.478760 
	C715.733582,708.918579 714.524658,713.358398 713.377502,717.571228 
	C711.440002,717.966858 709.969116,718.267151 708.498291,718.567505 
	C708.505615,718.882202 708.513000,719.196960 708.520325,719.511658 
	C709.811707,719.822388 711.103149,720.133179 712.551880,720.481812 
	C711.520386,724.425110 710.493958,728.100220 709.607239,731.808777 
	C708.721680,735.512146 707.363892,739.257202 707.414185,742.967773 
	C707.441406,744.976562 709.594177,747.705627 711.512817,748.674622 
	C712.776855,749.312988 715.332031,747.394653 717.309021,746.621155 
	C717.134827,746.233276 716.960632,745.845398 716.786438,745.457520 
	C711.117310,746.943726 710.454163,746.315674 711.945129,740.373535 
	C713.632568,733.648071 715.488525,726.964905 717.233887,720.403564 
	C720.096619,720.033081 722.586365,719.710876 725.076172,719.388611 
	C725.028076,719.002380 724.979980,718.616089 724.931885,718.229797 
	C722.711853,718.056519 720.491882,717.883240 718.044739,717.692200 
	C719.426575,712.287659 720.728882,707.194214 722.031189,702.100769 
	C721.697693,701.735840 721.364258,701.370850 721.030762,701.005920 
	C719.713989,701.911865 718.397156,702.817810 716.942505,704.478760 
M952.930603,717.079529 
	C943.955933,720.228943 938.725525,727.648804 938.811096,737.108948 
	C938.870911,743.722656 942.289673,748.327881 947.384766,748.658203 
	C952.770691,749.007324 958.374695,743.907593 959.222839,737.549500 
	C957.137695,740.216431 955.636169,743.173279 953.240967,744.863953 
	C951.410217,746.156250 946.507263,746.624023 946.306519,746.122742 
	C945.045959,742.974976 944.376282,739.460754 944.298767,736.049866 
	C944.275940,735.049072 946.691589,733.744202 948.199463,733.009155 
	C951.291443,731.502014 955.128601,730.940491 957.511169,728.744385 
	C959.438232,726.968079 960.675537,723.221924 960.294922,720.632202 
	C960.074524,719.133057 956.047546,718.193481 952.930603,717.079529 
M747.835144,735.757385 
	C747.859802,736.919373 747.795593,738.091248 747.924255,739.241577 
	C748.557068,744.898132 752.305847,748.754211 757.027771,748.673401 
	C762.350342,748.582275 767.797058,743.263123 768.044556,737.650574 
	C766.156311,740.152771 764.783325,743.009277 762.525330,744.641907 
	C760.660156,745.990601 757.242065,747.027527 755.402954,746.206665 
	C751.133606,744.300903 753.176819,739.894470 753.053345,736.413025 
	C752.945618,733.377686 755.029358,733.336853 757.290771,732.838318 
	C760.155212,732.206726 763.068909,731.183472 765.573303,729.681763 
	C769.107788,727.562439 771.176086,724.312988 769.374023,720.005310 
	C768.037292,716.810120 763.591614,715.884216 759.267761,718.009583 
	C752.285217,721.441956 748.723450,727.330627 747.835144,735.757385 
M811.040955,724.632263 
	C807.669922,730.097046 805.934265,735.888855 808.097290,742.222656 
	C810.025574,747.869019 814.535400,749.772156 819.611145,747.327637 
	C811.726440,746.180298 810.108521,742.276428 813.194153,734.829468 
	C818.538513,732.273071 823.287415,730.842224 826.840271,727.944702 
	C828.595703,726.513062 829.159241,722.024475 828.315796,719.594727 
	C827.802917,718.117126 823.114746,716.688354 821.122009,717.432617 
	C817.576050,718.756958 814.652222,721.747131 811.040955,724.632263 
M988.358582,726.347534 
	C989.751587,719.920105 986.824646,716.276123 980.893616,717.053955 
	C970.152588,718.462646 962.504272,736.031189 968.768005,744.906982 
	C971.380920,748.609497 974.896484,749.440552 979.006348,746.872681 
	C973.969360,747.577271 970.768372,745.513000 971.559814,741.015991 
	C972.661865,734.754211 974.796997,728.644836 976.887024,722.607666 
	C977.394348,721.142334 979.301819,719.894165 980.855286,719.156433 
	C981.825134,718.695740 983.337830,719.377991 984.606934,719.547363 
	C984.390076,720.711060 984.165161,721.873413 983.958496,723.038879 
	C983.691345,724.544556 983.438965,726.052734 983.180298,727.559875 
	C984.779236,727.364990 986.378235,727.170105 988.358582,726.347534 
M837.219971,746.435425 
	C840.225159,748.652405 840.936401,748.498779 842.132690,745.272095 
	C843.860840,740.611145 846.133240,736.049561 847.072266,731.231018 
	C847.818604,727.400818 847.201721,723.199341 846.521606,719.278687 
	C846.370544,718.408081 843.192505,717.229736 841.803589,717.615723 
	C840.033203,718.107849 838.664612,720.046021 837.122864,721.360901 
	C837.297363,721.599487 837.471924,721.838074 837.646423,722.076660 
	C839.233093,721.206299 840.819702,720.335876 842.406372,719.465515 
	C842.937073,719.705688 843.467773,719.945923 843.998413,720.186096 
	C841.811951,728.679810 839.625427,737.173462 837.219971,746.435425 
M682.468323,719.137573 
	C683.803589,719.423584 685.138855,719.709595 687.479980,720.211060 
	C685.229126,729.225464 682.970276,738.272034 680.407166,748.537170 
	C682.622864,747.624207 684.877563,747.305908 685.047241,746.531189 
	C686.804443,738.505859 692.939819,731.684570 691.113220,722.611206 
	C690.012207,717.141907 688.260315,715.916443 682.468323,719.137573 
M874.082947,717.275391 
	C872.460693,717.510010 870.838440,717.744568 869.216187,717.979187 
	C873.848206,718.524353 873.914551,721.147278 872.732117,724.293884 
	C871.506714,727.554688 869.774170,730.643738 868.761169,733.959900 
	C867.808960,737.077209 866.963928,740.407349 867.049744,743.617737 
	C867.166565,747.991028 870.321838,749.334229 875.018127,747.090149 
	C870.096252,747.179199 869.732666,744.719360 871.079529,741.315491 
	C872.848877,736.843994 874.869568,732.455322 876.345642,727.889893 
	C877.475647,724.394836 878.000183,720.669312 874.082947,717.275391 
M702.091125,725.919922 
	C705.060547,724.130066 705.979309,721.392273 703.751953,718.889893 
	C702.545166,717.533997 699.800964,717.546509 698.213257,717.078247 
	C698.213257,719.644897 697.820984,721.143799 698.311035,722.252808 
	C698.945068,723.687744 700.283142,724.811523 702.091125,725.919922 
M612.033386,724.720703 
	C612.930115,723.374146 613.826782,722.027588 614.723511,720.680969 
	C614.606262,720.626587 614.489075,720.572266 614.371826,720.517883 
	C613.715942,722.033142 613.059998,723.548401 612.033386,724.720703 
M540.054993,721.303650 
	C540.172913,721.220337 540.290771,721.137024 540.408691,721.053711 
	C540.345398,721.149841 540.282104,721.245972 540.054993,721.303650 
M868.213684,721.027161 
	C868.213684,721.027161 868.153320,721.345093 868.153320,721.345093 
	C868.153320,721.345093 868.082581,721.035950 868.213684,721.027161 
z"/>
<path fill="#DECDC6" opacity="1.000000" stroke="none" 
	d="
M332.995178,766.937256 
	C283.860931,766.940125 235.225632,766.940125 186.295212,766.940125 
	C186.295212,763.966614 186.295212,761.242737 186.295212,758.104980 
	C196.298340,758.104980 206.231339,758.104980 216.496750,758.104980 
	C216.496750,653.317505 216.496750,548.936523 216.496750,444.134705 
	C206.470093,444.134705 196.545898,444.134705 186.313599,444.134705 
	C186.313599,441.002625 186.313599,438.279602 186.313599,435.235657 
	C187.264343,435.157318 188.216003,435.009735 189.167572,435.010284 
	C239.330780,435.040283 289.496399,434.805115 339.656189,435.240814 
	C364.851257,435.459625 389.961670,437.610413 413.819366,446.736206 
	C434.754944,454.744171 451.112671,467.898773 456.749695,490.574799 
	C462.829681,515.032654 460.810791,538.646851 444.856537,559.427429 
	C436.650299,570.116211 425.723389,577.527283 413.080109,581.973511 
	C403.072144,585.493042 392.744232,588.102844 382.224091,591.215515 
	C383.339905,591.495300 384.436127,591.862793 385.562317,592.038818 
	C405.242706,595.115540 424.493378,599.581421 441.693939,610.227234 
	C464.307098,624.223206 475.705994,644.542419 476.163269,671.207642 
	C476.490936,690.315247 473.106750,708.237122 461.998291,724.274170 
	C451.890533,738.866516 437.625122,747.635376 421.481323,753.796448 
	C400.723694,761.718140 378.987518,764.695129 356.965027,765.989380 
	C349.149902,766.448669 341.318237,766.627563 332.995178,766.937256 
M364.805237,613.695251 
	C349.101746,598.492981 329.327789,599.156677 309.494080,599.011536 
	C309.494080,652.256226 309.494080,704.972961 309.494080,757.829102 
	C319.137970,757.829102 328.475708,758.265503 337.753113,757.704285 
	C346.730682,757.161255 354.985687,754.004761 361.693817,747.660400 
	C371.596039,738.295166 375.868866,725.972107 376.650848,713.127380 
	C377.974609,691.382629 378.143494,669.527100 377.773224,647.735535 
	C377.564484,635.449402 373.766968,623.780884 364.805237,613.695251 
M309.159210,525.499939 
	C309.159210,546.920471 309.159210,568.341064 309.159210,589.964600 
	C314.371063,589.964600 318.861664,590.042725 323.348816,589.951538 
	C347.111237,589.468750 361.418213,576.217224 364.080170,552.561157 
	C366.888184,527.606934 366.632446,502.638306 363.833344,477.757172 
	C362.212036,463.345276 356.803253,450.204132 341.071136,446.387177 
	C330.937836,443.928619 320.156097,444.142517 309.159210,443.111237 
	C309.159210,471.246674 309.159210,497.873260 309.159210,525.499939 
z"/>
<path fill="#D7C7C2" opacity="1.000000" stroke="none" 
	d="
M678.950256,641.052063 
	C679.752197,639.995483 681.154724,638.987854 681.245605,637.873230 
	C681.541504,634.246399 681.568848,630.562622 681.262451,626.937622 
	C681.125427,625.315918 679.948486,623.782043 679.258179,622.241089 
	C683.313965,622.241089 688.334106,622.241089 693.933838,622.241089 
	C693.933838,630.850708 693.933960,639.259033 693.933838,647.667297 
	C693.933716,653.973450 693.860535,660.281067 693.991211,666.584473 
	C694.019043,667.925476 694.788513,669.251160 695.353760,671.011841 
	C690.994385,670.510742 685.186279,673.770264 680.337036,668.011841 
	C679.957703,667.984131 680.035522,668.039062 680.157104,667.669922 
	C682.229248,658.405090 683.581238,649.537659 679.010315,640.975342 
	C678.990173,641.000854 678.950256,641.052063 678.950256,641.052063 
z"/>
<path fill="#DAC9C3" opacity="1.000000" stroke="none" 
	d="
M521.010193,668.987427 
	C516.326111,673.382385 510.681427,670.348572 505.892334,671.235779 
	C506.624786,669.780762 507.888794,668.427856 507.903564,667.061340 
	C508.051117,653.433228 508.047882,639.802368 507.904602,626.174133 
	C507.890747,624.855469 506.649200,623.549683 505.985229,622.252930 
	C510.023529,622.252930 514.723083,622.252930 520.159607,622.252930 
	C520.159607,627.533997 520.084229,632.774841 520.203613,638.011292 
	C520.241577,639.675415 520.798096,641.327759 521.654297,643.102356 
	C522.191162,643.219238 522.417175,643.477295 522.242493,643.797607 
	C521.483582,646.006897 520.411011,647.894104 520.404053,649.785156 
	C520.380432,656.209290 520.733215,662.634766 520.959351,669.041748 
	C520.976440,669.023743 521.010193,668.987427 521.010193,668.987427 
z"/>
<path fill="#D8C8C2" opacity="1.000000" stroke="none" 
	d="
M638.965942,670.037415 
	C638.278442,675.058167 637.590942,680.078918 636.810364,685.779419 
	C640.313232,685.779419 642.701904,685.779419 645.090637,685.779419 
	C645.090271,686.079773 645.089966,686.380066 645.089661,686.680420 
	C637.622742,686.680420 630.155884,686.680420 623.398254,686.680420 
	C623.928711,685.358032 625.062866,683.825867 625.080933,682.280640 
	C625.226685,669.794373 625.229187,657.304932 625.079346,644.818726 
	C625.060486,643.244629 623.904175,641.684204 623.239319,640.028931 
	C626.116516,640.028931 629.618774,640.320679 633.045593,639.937805 
	C635.852966,639.624146 637.165771,640.871155 638.570312,643.016052 
	C638.973877,642.966064 638.941040,642.922424 639.264648,643.231262 
	C636.570679,652.160583 635.942749,660.782288 639.423096,669.563843 
	C639.270569,669.721558 638.965881,670.037415 638.965942,670.037415 
z"/>
<path fill="#DECDC6" opacity="1.000000" stroke="none" 
	d="
M558.383423,670.093445 
	C553.640625,670.414978 548.897827,670.736450 543.803467,670.702881 
	C543.598328,670.222412 543.744690,670.097107 543.891113,669.971924 
	C544.876770,669.122925 546.710205,668.284973 546.721436,667.423279 
	C546.901123,653.622681 546.912659,639.818359 546.743713,626.017578 
	C546.727722,624.709656 545.247498,623.419617 544.482178,622.178345 
	C548.767456,622.178345 553.543640,622.178345 558.997314,622.178345 
	C558.997314,628.208984 558.988708,634.127197 559.003601,640.045349 
	C559.007141,641.449707 558.616455,643.428040 561.531250,641.998047 
	C561.939087,642.375977 561.963135,642.573364 561.748047,643.043823 
	C557.053772,651.085144 559.067749,659.336670 559.468994,667.666565 
	C559.081726,667.973755 558.929260,668.099609 558.629761,668.368896 
	C558.449646,669.039368 558.416504,669.566406 558.383423,670.093445 
z"/>
<path fill="#D8C8C2" opacity="1.000000" stroke="none" 
	d="
M716.006165,639.167664 
	C725.313965,639.241333 728.586548,642.354431 728.849976,651.587708 
	C728.977417,656.054504 728.925842,660.527649 728.891174,664.997437 
	C728.866150,668.224854 730.074829,669.108215 732.914612,667.191162 
	C731.051453,672.314636 724.582214,673.662415 719.027100,670.282410 
	C717.999817,669.657410 716.644653,669.571289 715.302856,668.796082 
	C715.792908,664.711914 716.420959,661.068237 717.185486,656.632507 
	C711.232605,658.478882 711.953918,662.275513 712.154663,665.500671 
	C712.226624,666.656311 713.827820,667.716675 714.731018,668.820496 
	C713.351929,671.755981 711.529907,672.520203 707.006287,671.859131 
	C703.304138,671.317993 700.333130,669.846130 699.800964,665.592712 
	C699.344666,661.945740 700.168884,658.651184 703.934570,657.544128 
	C707.837952,656.396545 711.981628,656.066345 716.735352,655.256836 
	C716.473511,651.095154 716.196960,646.699402 715.915283,641.487183 
	C715.942139,640.169678 715.974121,639.668701 716.006165,639.167664 
z"/>
<path fill="#DAC9C3" opacity="1.000000" stroke="none" 
	d="
M737.106506,636.873047 
	C736.292603,632.476868 738.209229,630.744873 741.957642,630.260742 
	C744.211670,629.969543 746.421387,629.335205 749.178040,628.741699 
	C749.178040,632.591553 749.178040,635.997925 749.178040,639.680786 
	C752.165344,639.893372 754.720947,640.075195 757.276489,640.257019 
	C757.276733,640.463867 757.276917,640.670715 757.277100,640.877625 
	C754.861816,641.032837 752.446533,641.188049 749.197021,641.396851 
	C750.913635,651.295654 746.144897,661.674683 752.628357,670.998047 
	C743.981140,674.793884 737.231079,670.607666 737.118042,660.391418 
	C737.059204,655.075928 737.220337,649.755249 737.031616,644.445801 
	C736.981201,643.028320 736.008240,641.643738 735.512451,640.380737 
	C735.865845,639.697144 736.485779,638.497864 737.106506,636.873047 
z"/>
<path fill="#D8C8C2" opacity="1.000000" stroke="none" 
	d="
M770.370667,640.094727 
	C773.385803,639.691223 776.029480,639.037476 778.636536,639.160645 
	C787.546692,639.581177 791.531494,644.316284 790.988281,654.043945 
	C788.105713,654.043945 785.167358,654.043945 782.229065,654.043945 
	C779.276367,654.043945 776.323669,654.043945 773.437683,654.043945 
	C772.081787,665.091919 774.489319,669.318237 782.390198,670.344482 
	C774.728577,673.738586 765.077759,670.414490 761.827454,663.261902 
	C757.696716,654.171936 761.098267,644.552795 770.370667,640.094727 
M779.172119,642.691284 
	C778.130859,641.904724 777.093323,640.528076 776.047241,640.521545 
	C775.236145,640.516541 773.888672,642.128723 773.697632,643.187683 
	C773.158203,646.178833 773.091125,649.255188 772.812317,652.605042 
	C775.524841,652.605042 777.533020,652.605042 779.984863,652.605042 
	C779.763977,649.325317 779.567261,646.404663 779.172119,642.691284 
z"/>
<path fill="#D3C3BF" opacity="1.000000" stroke="none" 
	d="
M632.047058,717.016724 
	C639.374939,718.110107 641.242126,720.172852 641.041687,727.272827 
	C640.866821,733.468323 638.808594,739.017090 634.671814,743.662903 
	C629.317383,749.676147 624.411316,749.925537 618.423645,744.244568 
	C616.868652,750.175415 615.382690,755.842834 613.830444,761.763123 
	C617.164368,761.961670 620.019531,762.131653 622.874756,762.301636 
	C622.867126,762.684143 622.859436,763.066711 622.851807,763.449219 
	C616.107117,763.449219 609.362427,763.449219 602.578918,763.449219 
	C602.703430,763.190674 602.950562,762.387451 603.101807,762.405090 
	C609.270813,763.125549 610.052612,758.854553 611.148132,754.315552 
	C613.368652,745.115295 616.048401,736.026733 618.427124,726.863098 
	C618.991516,724.688721 619.115173,722.399902 619.510864,719.689148 
	C617.631287,719.909485 616.424316,720.050903 615.217346,720.192383 
	C615.078430,719.969543 614.939453,719.746704 614.800537,719.523865 
	C616.082764,718.713867 617.284241,717.415710 618.662781,717.187622 
	C622.423035,716.565613 622.906311,719.442383 623.424133,722.926941 
	C623.697144,725.223816 624.190735,726.862122 623.911682,728.356201 
	C623.069580,732.864563 621.567444,737.279785 621.100952,741.811523 
	C620.942139,743.354858 622.767639,745.909241 624.297974,746.557129 
	C625.462952,747.050293 628.434204,745.715210 629.143005,744.404663 
	C631.550049,739.953552 633.591919,735.249329 635.238586,730.458069 
	C636.944153,725.495544 637.100769,720.543823 632.047058,717.016724 
z"/>
<path fill="#DAC9C3" opacity="1.000000" stroke="none" 
	d="
M601.960571,669.871399 
	C593.511841,675.073059 585.588928,671.131958 585.173035,661.377869 
	C584.939270,655.894226 585.260498,650.386780 585.018494,644.903931 
	C584.947205,643.288818 583.805603,641.721008 583.180908,640.195801 
	C587.041138,640.195801 591.964844,640.195801 597.376038,640.195801 
	C597.376038,647.975342 597.231384,655.612244 597.465027,663.237488 
	C597.534241,665.496155 596.543823,669.117493 601.479370,669.050842 
	C601.929626,669.472900 601.945129,669.672119 601.960571,669.871399 
z"/>
<path fill="#D7C7C2" opacity="1.000000" stroke="none" 
	d="
M602.286987,669.736084 
	C601.945129,669.672119 601.929626,669.472900 601.893372,668.974487 
	C602.733643,665.887024 604.115051,663.140198 604.341980,660.301147 
	C604.751221,655.179993 604.601746,649.998291 604.397217,644.853394 
	C604.334778,643.280762 603.328491,641.745605 602.731873,640.132324 
	C606.898682,640.132324 611.516479,640.132324 616.827393,640.132324 
	C616.827393,648.675232 616.744934,657.091553 616.895264,665.503662 
	C616.926208,667.237793 617.825317,668.956421 618.380493,670.876648 
	C614.193665,669.938110 608.498291,673.377686 603.705872,668.252869 
	C603.452820,668.565125 603.033142,669.082947 602.286987,669.736084 
z"/>
<path fill="#DAC9C3" opacity="1.000000" stroke="none" 
	d="
M522.885071,641.877136 
	C528.841003,637.598877 536.152222,639.118225 539.033508,645.573608 
	C541.923584,652.048523 542.024963,658.842346 539.208801,665.364319 
	C536.292053,672.119202 527.526428,674.080261 521.076172,669.355347 
	C521.010193,668.987427 520.976440,669.023743 521.319702,668.870972 
	C525.781189,670.623474 527.594604,669.917236 527.859741,665.476746 
	C528.243103,659.057983 528.089111,652.598877 527.953003,646.161438 
	C527.897583,643.540466 526.767700,641.596863 523.371155,642.467529 
	C523.102295,642.138611 522.993652,642.007874 522.885071,641.877136 
z"/>
<path fill="#D8C8C2" opacity="1.000000" stroke="none" 
	d="
M561.987183,642.770813 
	C561.963135,642.573364 561.939087,642.375977 561.889893,641.881348 
	C568.667175,637.411072 576.415466,639.506409 578.184021,646.982117 
	C579.469788,652.417480 579.530579,658.598877 578.336548,664.053345 
	C576.710999,671.478394 568.182007,673.996277 560.307617,669.749390 
	C564.089905,670.998291 566.477600,669.540344 566.667908,665.523987 
	C566.979187,658.954834 566.927002,652.355530 566.699463,645.780273 
	C566.607239,643.113831 565.015564,641.492310 561.987183,642.770813 
z"/>
<path fill="#D7C7C2" opacity="1.000000" stroke="none" 
	d="
M679.366211,669.435486 
	C672.159241,674.119690 664.340210,671.697998 662.100159,663.596130 
	C661.026367,659.712158 660.814392,655.392761 661.161804,651.352173 
	C662.007446,641.515259 669.343445,637.109741 678.887695,640.669617 
	C678.950256,641.052063 678.990173,641.000854 678.617798,641.016846 
	C674.847412,640.884827 674.038025,643.259888 673.963074,645.855835 
	C673.787842,651.922546 673.823181,657.996277 673.836365,664.067078 
	C673.843750,667.456299 675.447571,669.304565 679.108398,669.130005 
	C679.194458,669.231750 679.366211,669.435486 679.366211,669.435486 
z"/>
<path fill="#D8C8C2" opacity="1.000000" stroke="none" 
	d="
M640.419983,641.371643 
	C648.358765,637.324890 655.387390,640.013306 657.253723,648.491760 
	C658.223145,652.895508 658.302979,657.791077 657.490845,662.227539 
	C655.941528,670.691162 648.067017,674.079590 639.150635,670.375488 
	C638.965881,670.037415 639.270569,669.721558 639.744873,669.735107 
	C643.648193,670.715759 644.926025,668.593567 645.023743,665.859863 
	C645.258545,659.286011 645.377625,652.688110 645.014832,646.129150 
	C644.940491,644.784729 642.557373,643.567993 641.037720,642.058716 
	C640.697998,641.673950 640.558960,641.522827 640.419983,641.371643 
z"/>
<path fill="#D1C2BE" opacity="1.000000" stroke="none" 
	d="
M666.457886,743.458984 
	C664.926697,744.765503 663.749695,745.992249 662.340759,746.828003 
	C655.515625,750.876709 648.858154,747.880066 647.231323,740.111511 
	C645.594849,732.296570 650.352539,722.268982 657.479614,718.511536 
	C664.490051,714.815552 671.066772,718.233521 672.017700,726.132812 
	C672.795227,732.591553 670.890076,738.261658 666.457886,743.458984 
M660.334717,719.342041 
	C653.995178,725.004700 652.363037,732.614380 652.133423,740.540100 
	C652.074219,742.582703 653.898071,746.278076 655.138672,746.402344 
	C657.234497,746.612305 660.891541,745.092163 661.542114,743.397339 
	C663.941528,737.146851 665.792847,730.603394 667.013306,724.015076 
	C667.703918,720.287048 665.261902,718.092224 660.334717,719.342041 
z"/>
<path fill="#D1C2BE" opacity="1.000000" stroke="none" 
	d="
M885.098267,731.875549 
	C886.377197,728.054199 887.811340,724.652344 888.582825,721.106201 
	C889.252625,718.027527 890.681213,717.251648 894.158325,718.428040 
	C890.800354,729.959595 887.930542,741.698608 883.906128,753.027405 
	C880.790649,761.797729 874.445068,765.453186 867.725159,764.230286 
	C864.426331,763.630127 862.023193,761.936523 862.055420,758.392456 
	C862.067993,757.001892 863.141113,755.400269 864.185059,754.342651 
	C864.635071,753.886780 866.964600,754.278076 867.169189,754.791199 
	C867.643066,755.979858 867.781128,757.672241 867.274292,758.813477 
	C865.664856,762.437683 868.006531,763.646179 870.321533,762.578003 
	C873.394836,761.159790 877.130615,758.837585 878.237610,755.991882 
	C880.444946,750.317993 880.942444,743.995544 882.386353,737.998840 
	C882.870911,735.986267 884.085083,734.149475 885.098267,731.875549 
z"/>
<path fill="#CFC0BD" opacity="1.000000" stroke="none" 
	d="
M797.096802,717.045166 
	C801.105713,717.472839 802.021851,720.182678 802.053528,723.130859 
	C802.149780,732.086914 798.888184,739.769165 792.159058,745.664795 
	C789.092163,748.351929 785.079834,750.075500 781.123108,747.705444 
	C777.039673,745.259583 777.825928,741.052063 779.021484,737.360779 
	C780.398438,733.109131 782.427734,729.072754 783.944336,724.860352 
	C784.542358,723.199158 784.521179,721.315125 784.882324,718.846497 
	C782.159851,719.589355 780.496765,720.043152 778.831909,720.497437 
	C778.890198,720.775574 778.876465,720.965881 778.952515,721.013916 
	C779.071899,721.089294 779.317322,721.145142 779.396484,721.077332 
	C780.962158,719.738220 782.358643,717.674438 784.122131,717.291870 
	C785.172546,717.064087 787.861206,719.398682 787.951477,720.709473 
	C788.183655,724.082703 787.786560,727.640320 786.879333,730.913208 
	C785.867065,734.564880 783.847961,737.926636 782.612061,741.532837 
	C782.132507,742.932190 781.994141,745.255371 782.798950,746.063354 
	C783.620361,746.888000 785.915894,746.790283 787.348572,746.364502 
	C793.192932,744.627625 800.569458,733.220276 799.615417,727.224304 
	C799.415283,725.966675 797.758667,724.792053 796.550110,723.872314 
	C793.371948,721.453613 792.861755,719.254700 797.096802,717.045166 
z"/>
<path fill="#1B214C" opacity="1.000000" stroke="none" 
	d="
M631.697266,717.073608 
	C637.100769,720.543823 636.944153,725.495544 635.238586,730.458069 
	C633.591919,735.249329 631.550049,739.953552 629.143005,744.404663 
	C628.434204,745.715210 625.462952,747.050293 624.297974,746.557129 
	C622.767639,745.909241 620.942139,743.354858 621.100952,741.811523 
	C621.567444,737.279785 623.069580,732.864563 623.911682,728.356201 
	C624.190735,726.862122 623.697144,725.223816 623.537231,723.312012 
	C626.127502,721.025208 628.737427,719.077820 631.697266,717.073608 
z"/>
<path fill="#D3C3BF" opacity="1.000000" stroke="none" 
	d="
M585.096375,746.959900 
	C584.229614,746.040649 583.362793,745.121460 582.047424,743.726501 
	C580.457581,749.830994 578.979675,755.505554 577.362793,761.713806 
	C580.682129,761.927612 583.515808,762.110168 586.349487,762.292664 
	C586.346130,762.642822 586.342773,762.992981 586.339417,763.343140 
	C579.634216,763.343140 572.929077,763.343140 566.212097,763.343140 
	C566.212097,763.036926 566.212097,762.875244 566.212097,762.713562 
	C573.481262,763.007080 573.878357,757.521912 575.121277,752.447205 
	C577.329285,743.432556 579.813782,734.484619 582.259827,725.529846 
	C583.149597,722.272644 584.098572,719.145813 578.557434,718.913513 
	C584.185303,715.179138 586.103394,717.240356 588.002441,723.904297 
	C588.958679,724.099670 589.200745,724.119019 589.312012,724.487061 
	C588.379578,726.619995 587.397034,728.347046 586.810486,730.199524 
	C585.160645,735.410034 582.357117,740.605347 585.837769,746.265015 
	C585.520203,746.619812 585.316772,746.799438 585.096375,746.959900 
z"/>
<path fill="#CFC0BD" opacity="1.000000" stroke="none" 
	d="
M929.820190,710.940552 
	C929.164612,713.398621 928.610474,715.462769 927.997986,717.744202 
	C930.552063,717.917786 932.788940,718.069763 935.025818,718.221802 
	C935.057434,718.646118 935.088989,719.070435 935.120544,719.494690 
	C932.719360,719.743530 930.318115,719.992310 927.240234,720.311279 
	C925.317932,727.655518 922.939453,735.223389 921.444153,742.961914 
	C920.355225,748.597656 924.758484,745.239685 926.954895,745.376282 
	C927.083374,745.899780 927.211853,746.423279 927.340332,746.946838 
	C925.143738,747.566956 922.511536,749.217957 920.869934,748.524414 
	C919.143250,747.794861 917.255127,744.742737 917.391602,742.846008 
	C917.720703,738.270630 919.143799,733.766235 920.216125,729.254761 
	C920.902954,726.364685 921.750610,723.512878 922.585388,720.424927 
	C921.092957,720.122498 919.836670,719.867981 918.580444,719.613464 
	C918.519409,719.292175 918.458435,718.970947 918.397400,718.649719 
	C919.948669,718.311401 921.499878,717.973022 923.052124,717.631592 
	C926.203613,712.563904 924.319031,704.764343 929.864258,701.000610 
	C930.577759,701.342712 931.291260,701.684814 932.004822,702.026917 
	C931.310425,704.866821 930.615967,707.706726 929.820190,710.940552 
z"/>
<path fill="#CFC0BD" opacity="1.000000" stroke="none" 
	d="
M717.011414,704.101257 
	C718.397156,702.817810 719.713989,701.911865 721.030762,701.005920 
	C721.364258,701.370850 721.697693,701.735840 722.031189,702.100769 
	C720.728882,707.194214 719.426575,712.287659 718.044739,717.692200 
	C720.491882,717.883240 722.711853,718.056519 724.931885,718.229797 
	C724.979980,718.616089 725.028076,719.002380 725.076172,719.388611 
	C722.586365,719.710876 720.096619,720.033081 717.233887,720.403564 
	C715.488525,726.964905 713.632568,733.648071 711.945129,740.373535 
	C710.454163,746.315674 711.117310,746.943726 716.786438,745.457520 
	C716.960632,745.845398 717.134827,746.233276 717.309021,746.621155 
	C715.332031,747.394653 712.776855,749.312988 711.512817,748.674622 
	C709.594177,747.705627 707.441406,744.976562 707.414185,742.967773 
	C707.363892,739.257202 708.721680,735.512146 709.607239,731.808777 
	C710.493958,728.100220 711.520386,724.425110 712.551880,720.481812 
	C711.103149,720.133179 709.811707,719.822388 708.520325,719.511658 
	C708.513000,719.196960 708.505615,718.882202 708.498291,718.567505 
	C709.969116,718.267151 711.440002,717.966858 713.377502,717.571228 
	C714.524658,713.358398 715.733582,708.918579 717.011414,704.101257 
z"/>
<path fill="#D1C2BE" opacity="1.000000" stroke="none" 
	d="
M1003.128418,733.165222 
	C1001.581848,737.185303 999.776245,741.129822 998.572998,745.250183 
	C997.658630,748.381470 996.067566,748.691650 993.286011,747.566162 
	C997.352417,732.318176 1001.408936,717.107178 1005.598267,701.398254 
	C1003.070312,701.172485 1001.026794,700.989929 998.983276,700.807434 
	C998.964966,700.519348 998.946655,700.231323 998.928284,699.943237 
	C1002.577393,699.943237 1006.226440,699.943237 1010.622253,699.943237 
	C1008.233887,708.745728 1005.821899,717.635071 1003.091736,727.182983 
	C1002.891785,729.616089 1003.010132,731.390686 1003.128418,733.165222 
z"/>
<path fill="#CBBDBA" opacity="1.000000" stroke="none" 
	d="
M953.332153,717.040771 
	C956.047546,718.193481 960.074524,719.133057 960.294922,720.632202 
	C960.675537,723.221924 959.438232,726.968079 957.511169,728.744385 
	C955.128601,730.940491 951.291443,731.502014 948.199463,733.009155 
	C946.691589,733.744202 944.275940,735.049072 944.298767,736.049866 
	C944.376282,739.460754 945.045959,742.974976 946.306519,746.122742 
	C946.507263,746.624023 951.410217,746.156250 953.240967,744.863953 
	C955.636169,743.173279 957.137695,740.216431 959.222839,737.549500 
	C958.374695,743.907593 952.770691,749.007324 947.384766,748.658203 
	C942.289673,748.327881 938.870911,743.722656 938.811096,737.108948 
	C938.725525,727.648804 943.955933,720.228943 953.332153,717.040771 
M947.248352,731.205627 
	C953.880249,730.456421 957.203613,727.948059 957.608398,723.253418 
	C957.867798,720.244873 956.839966,718.307739 953.362549,718.999329 
	C949.124695,719.842102 945.292480,726.533569 947.248352,731.205627 
z"/>
<path fill="#CBBDBA" opacity="1.000000" stroke="none" 
	d="
M747.857056,735.361816 
	C748.723450,727.330627 752.285217,721.441956 759.267761,718.009583 
	C763.591614,715.884216 768.037292,716.810120 769.374023,720.005310 
	C771.176086,724.312988 769.107788,727.562439 765.573303,729.681763 
	C763.068909,731.183472 760.155212,732.206726 757.290771,732.838318 
	C755.029358,733.336853 752.945618,733.377686 753.053345,736.413025 
	C753.176819,739.894470 751.133606,744.300903 755.402954,746.206665 
	C757.242065,747.027527 760.660156,745.990601 762.525330,744.641907 
	C764.783325,743.009277 766.156311,740.152771 768.044556,737.650574 
	C767.797058,743.263123 762.350342,748.582275 757.027771,748.673401 
	C752.305847,748.754211 748.557068,744.898132 747.924255,739.241577 
	C747.795593,738.091248 747.859802,736.919373 747.857056,735.361816 
M755.750305,725.773010 
	C755.256042,727.425781 754.761780,729.078613 754.267517,730.731384 
	C754.657349,731.226379 755.047180,731.721436 755.437012,732.216492 
	C758.631775,730.607178 762.413391,729.579346 764.800354,727.169861 
	C766.223755,725.732971 765.457886,722.127319 765.676208,719.496704 
	C763.216187,720.242188 760.649841,720.759949 758.344727,721.836975 
	C757.314331,722.318237 756.808655,723.922424 755.750305,725.773010 
z"/>
<path fill="#CFC0BD" opacity="1.000000" stroke="none" 
	d="
M510.024902,745.989319 
	C512.148315,746.297791 514.447937,747.256531 516.348389,746.741821 
	C518.482727,746.163757 521.295471,744.602661 521.890686,742.825500 
	C522.469482,741.097534 520.938660,738.348389 519.722595,736.436768 
	C518.800964,734.988037 516.976318,734.062195 515.451477,733.058899 
	C511.835785,730.679932 510.476257,726.857605 512.351746,723.557678 
	C513.937439,720.767517 517.364929,718.452820 520.486572,717.258545 
	C524.004272,715.912659 527.608459,717.728516 529.243652,721.213257 
	C530.066345,722.966431 529.446960,725.458252 529.143982,727.567810 
	C529.117859,727.749329 526.564514,727.567871 525.185181,727.555054 
	C525.442688,725.668213 525.700195,723.781311 525.957764,721.894470 
	C526.346069,721.446411 526.734375,720.998413 527.122681,720.550354 
	C524.673767,720.030396 522.126099,718.857178 519.808716,719.207458 
	C518.106812,719.464722 515.408447,721.772217 515.462463,723.069885 
	C515.553955,725.265869 517.373474,727.446411 518.668091,729.506836 
	C519.164551,730.296997 520.177551,730.796509 521.016907,731.331604 
	C524.996216,733.868286 527.673767,736.987305 525.728821,742.074951 
	C524.061096,746.437317 518.578308,749.313416 513.368103,748.547302 
	C512.079407,748.357788 510.846741,747.787476 509.462341,746.974548 
	C509.547150,746.344849 509.776642,746.155701 510.024902,745.989319 
z"/>
<path fill="#CBBDBA" opacity="1.000000" stroke="none" 
	d="
M811.254578,724.336426 
	C814.652222,721.747131 817.576050,718.756958 821.122009,717.432617 
	C823.114746,716.688354 827.802917,718.117126 828.315796,719.594727 
	C829.159241,722.024475 828.595703,726.513062 826.840271,727.944702 
	C823.287415,730.842224 818.538513,732.273071 813.194153,734.829468 
	C810.108521,742.276428 811.726440,746.180298 819.611145,747.327637 
	C814.535400,749.772156 810.025574,747.869019 808.097290,742.222656 
	C805.934265,735.888855 807.669922,730.097046 811.254578,724.336426 
M815.439941,725.226196 
	C814.895081,727.040649 814.350159,728.855164 813.710632,730.984802 
	C818.705444,731.394226 822.900269,730.784119 824.856750,726.474060 
	C825.756653,724.491699 824.841187,721.685364 824.748840,719.252625 
	C822.548584,719.951599 820.231506,720.419006 818.196594,721.445679 
	C817.153687,721.971802 816.615112,723.497620 815.439941,725.226196 
z"/>
<path fill="#CFC0BD" opacity="1.000000" stroke="none" 
	d="
M988.167847,726.661377 
	C986.378235,727.170105 984.779236,727.364990 983.180298,727.559875 
	C983.438965,726.052734 983.691345,724.544556 983.958496,723.038879 
	C984.165161,721.873413 984.390076,720.711060 984.606934,719.547363 
	C983.337830,719.377991 981.825134,718.695740 980.855286,719.156433 
	C979.301819,719.894165 977.394348,721.142334 976.887024,722.607666 
	C974.796997,728.644836 972.661865,734.754211 971.559814,741.015991 
	C970.768372,745.513000 973.969360,747.577271 979.006348,746.872681 
	C974.896484,749.440552 971.380920,748.609497 968.768005,744.906982 
	C962.504272,736.031189 970.152588,718.462646 980.893616,717.053955 
	C986.824646,716.276123 989.751587,719.920105 988.167847,726.661377 
z"/>
<path fill="#222750" opacity="1.000000" stroke="none" 
	d="
M561.748047,643.043823 
	C565.015564,641.492310 566.607239,643.113831 566.699463,645.780273 
	C566.927002,652.355530 566.979187,658.954834 566.667908,665.523987 
	C566.477600,669.540344 564.089905,670.998291 559.965332,669.548767 
	C559.491333,669.990662 559.271118,670.024597 558.717163,670.076050 
	C558.416504,669.566406 558.449646,669.039368 558.760620,668.655151 
	C559.260132,668.360413 559.481934,667.922852 559.703735,667.485291 
	C559.067749,659.336670 557.053772,651.085144 561.748047,643.043823 
z"/>
<path fill="#CBBDBA" opacity="1.000000" stroke="none" 
	d="
M589.442810,724.138428 
	C589.200745,724.119019 588.958679,724.099670 588.354858,724.038818 
	C590.722778,718.255127 594.551514,715.909729 599.077454,717.206970 
	C603.022949,718.337891 605.161438,722.591919 604.554504,728.299438 
	C603.826782,735.144409 601.494812,741.277039 595.979797,745.723633 
	C592.899292,748.207397 589.487549,749.912964 585.283325,747.258057 
	C585.316772,746.799438 585.520203,746.619812 586.174194,746.383179 
	C589.767090,747.911804 592.032715,746.241150 593.178833,743.780457 
	C595.450256,738.903931 597.710754,733.895935 598.911865,728.696411 
	C599.593811,725.744385 599.252075,720.556335 597.466980,719.451233 
	C593.781128,717.169373 591.815430,721.837952 589.442810,724.138428 
z"/>
<path fill="#CFC0BD" opacity="1.000000" stroke="none" 
	d="
M1011.052734,719.093140 
	C1013.319885,718.582275 1016.256042,716.981689 1017.674805,717.852783 
	C1019.239197,718.813293 1020.393799,722.237671 1019.995178,724.244812 
	C1019.005310,729.228333 1016.984802,734.002136 1015.468872,738.888306 
	C1014.719482,741.303772 1014.170227,743.781372 1013.530396,746.230835 
	C1013.928284,746.518005 1014.326172,746.805176 1014.724060,747.092346 
	C1016.307434,746.211792 1017.890747,745.331299 1019.474121,744.450745 
	C1019.739929,744.837402 1020.005798,745.223999 1020.271606,745.610657 
	C1018.159180,746.726074 1016.002502,748.742188 1013.949707,748.641479 
	C1012.572021,748.573914 1010.268799,745.506165 1010.269531,743.781494 
	C1010.271057,740.237976 1011.303711,736.622681 1012.355347,733.172119 
	C1013.416504,729.690308 1015.216003,726.435852 1016.315979,722.962708 
	C1017.264221,719.968872 1016.410889,718.229858 1012.288818,719.824829 
	C1011.429016,719.631958 1011.208374,719.392517 1011.052734,719.093140 
z"/>
<path fill="#D3C3BF" opacity="1.000000" stroke="none" 
	d="
M837.329468,746.051270 
	C839.625427,737.173462 841.811951,728.679810 843.998413,720.186096 
	C843.467773,719.945923 842.937073,719.705688 842.406372,719.465515 
	C840.819702,720.335876 839.233093,721.206299 837.646423,722.076660 
	C837.471924,721.838074 837.297363,721.599487 837.122864,721.360901 
	C838.664612,720.046021 840.033203,718.107849 841.803589,717.615723 
	C843.192505,717.229736 846.370544,718.408081 846.521606,719.278687 
	C847.201721,723.199341 847.818604,727.400818 847.072266,731.231018 
	C846.133240,736.049561 843.860840,740.611145 842.132690,745.272095 
	C840.936401,748.498779 840.225159,748.652405 837.329468,746.051270 
z"/>
<path fill="#D1C2BE" opacity="1.000000" stroke="none" 
	d="
M682.798340,718.922485 
	C688.260315,715.916443 690.012207,717.141907 691.113220,722.611206 
	C692.939819,731.684570 686.804443,738.505859 685.047241,746.531189 
	C684.877563,747.305908 682.622864,747.624207 680.407166,748.537170 
	C682.970276,738.272034 685.229126,729.225464 687.479980,720.211060 
	C685.138855,719.709595 683.803589,719.423584 682.798340,718.922485 
z"/>
<path fill="#D1C2BE" opacity="1.000000" stroke="none" 
	d="
M547.964417,746.941711 
	C545.697693,747.432434 543.008179,748.876648 541.295776,748.117249 
	C539.882812,747.490723 538.612183,744.012512 539.042908,742.222595 
	C540.464905,736.313110 542.666321,730.589294 544.608704,724.807739 
	C546.044678,720.533325 545.625244,719.704041 541.374146,718.753235 
	C545.416626,716.080078 548.603882,717.134216 548.797729,721.716858 
	C548.940002,725.081482 548.032959,728.592468 547.050537,731.875732 
	C545.913330,735.676331 543.990540,739.237305 542.769165,743.018677 
	C541.827698,745.933167 542.574829,747.794983 546.753052,746.207642 
	C547.596497,746.409485 547.810486,746.648743 547.964417,746.941711 
z"/>
<path fill="#D1C2BE" opacity="1.000000" stroke="none" 
	d="
M555.907898,732.874695 
	C557.463623,728.868286 559.325806,724.947510 560.476257,720.828003 
	C561.364990,717.645447 562.993042,717.387512 565.730042,718.340027 
	C563.746460,726.186462 561.622192,734.006470 559.881592,741.911011 
	C559.478455,743.741577 560.385864,745.860779 560.737549,748.155762 
	C558.130676,749.436951 556.769226,749.137573 555.957947,745.865234 
	C555.458435,743.850586 555.772278,741.634277 555.978149,738.820923 
	C556.126221,736.380432 556.017029,734.627563 555.907898,732.874695 
z"/>
<path fill="#CFC0BD" opacity="1.000000" stroke="none" 
	d="
M874.417969,717.490845 
	C878.000183,720.669312 877.475647,724.394836 876.345642,727.889893 
	C874.869568,732.455322 872.848877,736.843994 871.079529,741.315491 
	C869.732666,744.719360 870.096252,747.179199 875.018127,747.090149 
	C870.321838,749.334229 867.166565,747.991028 867.049744,743.617737 
	C866.963928,740.407349 867.808960,737.077209 868.761169,733.959900 
	C869.774170,730.643738 871.506714,727.554688 872.732117,724.293884 
	C873.914551,721.147278 873.848206,718.524353 869.216187,717.979187 
	C870.838440,717.744568 872.460693,717.510010 874.417969,717.490845 
z"/>
<path fill="#D3C3BF" opacity="1.000000" stroke="none" 
	d="
M715.576782,639.090515 
	C715.974121,639.668701 715.942139,640.169678 715.875732,641.045654 
	C714.260864,641.260620 712.680420,641.100586 711.099976,640.940552 
	C711.152771,642.237549 711.206787,643.534424 711.258057,644.831482 
	C711.339294,646.887085 712.270142,649.702820 711.284424,650.806824 
	C710.040222,652.200500 706.951843,653.094055 705.180481,652.539062 
	C703.507446,652.014832 701.134399,648.933899 701.498169,647.685425 
	C702.283020,644.992432 704.147278,641.975769 706.466492,640.547546 
	C708.792908,639.114990 712.208984,639.451904 715.576782,639.090515 
z"/>
<path fill="#D7C7C2" opacity="1.000000" stroke="none" 
	d="
M853.402893,720.058899 
	C853.260925,719.975525 853.123596,719.841125 852.975220,719.827393 
	C852.882080,719.818848 852.772217,719.991455 852.669861,720.082764 
	C853.050720,720.182190 853.431519,720.281616 853.812378,720.380981 
	C852.800476,716.632263 855.965332,716.542175 857.538452,717.285767 
	C859.157288,718.050964 860.665955,720.417542 860.893127,722.248413 
	C861.030823,723.358276 858.645264,724.781067 857.393311,726.063232 
	C856.523193,724.814148 855.653137,723.565063 854.984680,721.780518 
	C854.591797,720.849548 853.997375,720.454224 853.402893,720.058899 
z"/>
<path fill="#CFC0BD" opacity="1.000000" stroke="none" 
	d="
M701.704590,725.994629 
	C700.283142,724.811523 698.945068,723.687744 698.311035,722.252808 
	C697.820984,721.143799 698.213257,719.644897 698.213257,717.078247 
	C699.800964,717.546509 702.545166,717.533997 703.751953,718.889893 
	C705.979309,721.392273 705.060547,724.130066 701.704590,725.994629 
z"/>
<path fill="#CBBDBA" opacity="1.000000" stroke="none" 
	d="
M509.798584,745.686401 
	C509.776642,746.155701 509.547150,746.344849 509.190186,746.725586 
	C505.589783,744.742981 504.335663,741.700928 506.264343,738.071472 
	C506.758026,737.142517 508.928833,737.104797 510.329102,736.657654 
	C510.348816,738.066833 510.482758,739.486328 510.357452,740.882507 
	C510.221771,742.394104 509.844269,743.884094 509.798584,745.686401 
z"/>
<path fill="#A79DA3" opacity="1.000000" stroke="none" 
	d="
M555.642456,733.087158 
	C556.017029,734.627563 556.126221,736.380432 556.101929,738.396118 
	C553.512085,741.341370 551.055725,744.023865 548.281860,746.824097 
	C547.810486,746.648743 547.596497,746.409485 547.123413,746.084839 
	C549.741882,741.730408 552.559448,737.515015 555.642456,733.087158 
z"/>
<path fill="#A79DA3" opacity="1.000000" stroke="none" 
	d="
M1010.741821,719.222473 
	C1011.208374,719.392517 1011.429016,719.631958 1011.918579,719.950134 
	C1009.305603,724.309631 1006.488770,728.530518 1003.400146,732.958252 
	C1003.010132,731.390686 1002.891785,729.616089 1002.920044,727.578979 
	C1005.521423,724.661621 1007.976196,722.006714 1010.741821,719.222473 
z"/>
<path fill="#D3C3BF" opacity="1.000000" stroke="none" 
	d="
M612.218750,724.892212 
	C613.059998,723.548401 613.715942,722.033142 614.371826,720.517883 
	C614.489075,720.572266 614.606262,720.626587 614.723511,720.680969 
	C613.826782,722.027588 612.930115,723.374146 612.218750,724.892212 
z"/>
<path fill="#D1C2BE" opacity="1.000000" stroke="none" 
	d="
M540.136841,721.322876 
	C540.282104,721.245972 540.345398,721.149841 540.408691,721.053711 
	C540.290771,721.137024 540.172913,721.220337 540.136841,721.322876 
z"/>
<path fill="#CFC0BD" opacity="1.000000" stroke="none" 
	d="
M868.148132,721.031555 
	C868.082581,721.035950 868.153320,721.345093 868.153320,721.345093 
	C868.153320,721.345093 868.213684,721.027161 868.148132,721.031555 
z"/>
<path fill="#D8C8C2" opacity="1.000000" stroke="none" 
	d="
M638.990112,642.988037 
	C639.326660,642.572083 639.647095,642.134155 640.193726,641.533936 
	C640.558960,641.522827 640.697998,641.673950 640.769531,642.346069 
	C640.115112,642.885437 639.528076,642.903931 638.941040,642.922424 
	C638.941040,642.922424 638.973877,642.966064 638.990112,642.988037 
z"/>
<path fill="#222750" opacity="1.000000" stroke="none" 
	d="
M543.736694,670.011597 
	C543.744690,670.097107 543.598328,670.222412 543.296143,670.590820 
	C543.143311,670.489380 543.290588,670.228577 543.736694,670.011597 
z"/>
<path fill="#D7C7C2" opacity="1.000000" stroke="none" 
	d="
M679.916382,667.960510 
	C679.971252,668.177246 680.104248,668.411316 680.146423,668.660828 
	C680.164429,668.767456 679.992920,668.906067 679.636841,669.232849 
	C679.366211,669.435486 679.194458,669.231750 679.154785,668.868103 
	C679.421875,668.349304 679.728699,668.194153 680.035522,668.039062 
	C680.035522,668.039062 679.957703,667.984131 679.916382,667.960510 
z"/>
<path fill="#DAC9C3" opacity="1.000000" stroke="none" 
	d="
M522.077942,643.090454 
	C522.100098,642.651123 522.235535,642.340576 522.627991,641.953552 
	C522.993652,642.007874 523.102295,642.138611 523.209717,642.635010 
	C522.981689,643.220947 522.717896,643.379761 522.417175,643.477295 
	C522.417175,643.477295 522.191162,643.219238 522.077942,643.090454 
z"/>
<path fill="#171D49" opacity="1.000000" stroke="none" 
	d="
M365.050781,613.954346 
	C373.766968,623.780884 377.564484,635.449402 377.773224,647.735535 
	C378.143494,669.527100 377.974609,691.382629 376.650848,713.127380 
	C375.868866,725.972107 371.596039,738.295166 361.693817,747.660400 
	C354.985687,754.004761 346.730682,757.161255 337.753113,757.704285 
	C328.475708,758.265503 319.137970,757.829102 309.494080,757.829102 
	C309.494080,704.972961 309.494080,652.256226 309.494080,599.011536 
	C329.327789,599.156677 349.101746,598.492981 365.050781,613.954346 
z"/>
<path fill="#171E49" opacity="1.000000" stroke="none" 
	d="
M309.159210,524.999878 
	C309.159210,497.873260 309.159210,471.246674 309.159210,443.111237 
	C320.156097,444.142517 330.937836,443.928619 341.071136,446.387177 
	C356.803253,450.204132 362.212036,463.345276 363.833344,477.757172 
	C366.632446,502.638306 366.888184,527.606934 364.080170,552.561157 
	C361.418213,576.217224 347.111237,589.468750 323.348816,589.951538 
	C318.861664,590.042725 314.371063,589.964600 309.159210,589.964600 
	C309.159210,568.341064 309.159210,546.920471 309.159210,524.999878 
z"/>
<path fill="#222750" opacity="1.000000" stroke="none" 
	d="
M680.157104,667.669922 
	C679.728699,668.194153 679.421875,668.349304 679.068726,668.766357 
	C675.447571,669.304565 673.843750,667.456299 673.836365,664.067078 
	C673.823181,657.996277 673.787842,651.922546 673.963074,645.855835 
	C674.038025,643.259888 674.847412,640.884827 678.637939,640.991333 
	C683.581238,649.537659 682.229248,658.405090 680.157104,667.669922 
z"/>
<path fill="#1B214C" opacity="1.000000" stroke="none" 
	d="
M522.242493,643.797607 
	C522.717896,643.379761 522.981689,643.220947 523.369995,642.833313 
	C526.767700,641.596863 527.897583,643.540466 527.953003,646.161438 
	C528.089111,652.598877 528.243103,659.057983 527.859741,665.476746 
	C527.594604,669.917236 525.781189,670.623474 521.302612,668.888916 
	C520.733215,662.634766 520.380432,656.209290 520.404053,649.785156 
	C520.411011,647.894104 521.483582,646.006897 522.242493,643.797607 
z"/>
<path fill="#222750" opacity="1.000000" stroke="none" 
	d="
M639.264648,643.231262 
	C639.528076,642.903931 640.115112,642.885437 640.970337,642.579712 
	C642.557373,643.567993 644.940491,644.784729 645.014832,646.129150 
	C645.377625,652.688110 645.258545,659.286011 645.023743,665.859863 
	C644.926025,668.593567 643.648193,670.715759 639.897339,669.577393 
	C635.942749,660.782288 636.570679,652.160583 639.264648,643.231262 
z"/>
<path fill="#222750" opacity="1.000000" stroke="none" 
	d="
M714.702026,668.844238 
	C713.827820,667.716675 712.226624,666.656311 712.154663,665.500671 
	C711.953918,662.275513 711.232605,658.478882 717.185486,656.632507 
	C716.420959,661.068237 715.792908,664.711914 714.888245,668.633423 
	C714.611633,668.911194 714.673035,668.868042 714.702026,668.844238 
z"/>
<path fill="#222750" opacity="1.000000" stroke="none" 
	d="
M779.271362,643.087646 
	C779.567261,646.404663 779.763977,649.325317 779.984863,652.605042 
	C777.533020,652.605042 775.524841,652.605042 772.812317,652.605042 
	C773.091125,649.255188 773.158203,646.178833 773.697632,643.187683 
	C773.888672,642.128723 775.236145,640.516541 776.047241,640.521545 
	C777.093323,640.528076 778.130859,641.904724 779.271362,643.087646 
z"/>
<path fill="#1B214C" opacity="1.000000" stroke="none" 
	d="
M660.707275,719.200500 
	C665.261902,718.092224 667.703918,720.287048 667.013306,724.015076 
	C665.792847,730.603394 663.941528,737.146851 661.542114,743.397339 
	C660.891541,745.092163 657.234497,746.612305 655.138672,746.402344 
	C653.898071,746.278076 652.074219,742.582703 652.133423,740.540100 
	C652.363037,732.614380 653.995178,725.004700 660.707275,719.200500 
z"/>
<path fill="#1B214C" opacity="1.000000" stroke="none" 
	d="
M589.312012,724.487061 
	C591.815430,721.837952 593.781128,717.169373 597.466980,719.451233 
	C599.252075,720.556335 599.593811,725.744385 598.911865,728.696411 
	C597.710754,733.895935 595.450256,738.903931 593.178833,743.780457 
	C592.032715,746.241150 589.767090,747.911804 586.305176,746.227173 
	C582.357117,740.605347 585.160645,735.410034 586.810486,730.199524 
	C587.397034,728.347046 588.379578,726.619995 589.312012,724.487061 
z"/>
<path fill="#1B214C" opacity="1.000000" stroke="none" 
	d="
M946.799316,731.178955 
	C945.292480,726.533569 949.124695,719.842102 953.362549,718.999329 
	C956.839966,718.307739 957.867798,720.244873 957.608398,723.253418 
	C957.203613,727.948059 953.880249,730.456421 946.799316,731.178955 
z"/>
<path fill="#1B214C" opacity="1.000000" stroke="none" 
	d="
M755.907593,725.395020 
	C756.808655,723.922424 757.314331,722.318237 758.344727,721.836975 
	C760.649841,720.759949 763.216187,720.242188 765.676208,719.496704 
	C765.457886,722.127319 766.223755,725.732971 764.800354,727.169861 
	C762.413391,729.579346 758.631775,730.607178 755.437012,732.216492 
	C755.047180,731.721436 754.657349,731.226379 754.267517,730.731384 
	C754.761780,729.078613 755.256042,727.425781 755.907593,725.395020 
z"/>
<path fill="#1B214C" opacity="1.000000" stroke="none" 
	d="
M815.644287,724.898926 
	C816.615112,723.497620 817.153687,721.971802 818.196594,721.445679 
	C820.231506,720.419006 822.548584,719.951599 824.748840,719.252625 
	C824.841187,721.685364 825.756653,724.491699 824.856750,726.474060 
	C822.900269,730.784119 818.705444,731.394226 813.710632,730.984802 
	C814.350159,728.855164 814.895081,727.040649 815.644287,724.898926 
z"/>
<path fill="#DECDC6" opacity="1.000000" stroke="none" 
	d="
M559.468994,667.666565 
	C559.481934,667.922852 559.260132,668.360413 558.907593,668.511780 
	C558.929260,668.099609 559.081726,667.973755 559.468994,667.666565 
z"/>
<path fill="#151C48" opacity="1.000000" stroke="none" 
	d="
M853.745483,720.467407 
	C853.997375,720.454224 854.591797,720.849548 855.007996,721.443359 
	C854.582520,721.386536 854.335266,721.131165 853.745483,720.467407 
z"/>
</svg>