<?xml version="1.0" encoding="UTF-8"?>
<!DOCTYPE svg PUBLIC "-//W3C//DTD SVG 1.1//EN" "http://www.w3.org/Graphics/SVG/1.1/DTD/svg11.dtd">
<svg xmlns="http://www.w3.org/2000/svg" version="1.1" width="226px" height="223px" style="shape-rendering:geometricPrecision; text-rendering:geometricPrecision; image-rendering:optimizeQuality; fill-rule:evenodd; clip-rule:evenodd" xmlns:xlink="http://www.w3.org/1999/xlink">
<g><path style="opacity:1" fill="#fdfdfd" d="M -0.5,-0.5 C 36.1667,-0.5 72.8333,-0.5 109.5,-0.5C 107.527,0.805998 105.861,2.47266 104.5,4.5C 104.5,9.83333 104.5,15.1667 104.5,20.5C 103.508,20.3284 102.842,20.6618 102.5,21.5C 104.893,25.8648 108.059,29.8648 112,33.5C 113.039,32.2899 114.206,31.2899 115.5,30.5C 116.276,32.974 117.776,33.6407 120,32.5C 121.077,29.7383 120.244,28.0717 117.5,27.5C 118.73,25.7028 119.396,23.7028 119.5,21.5C 124.745,24.1179 126.911,28.4512 126,34.5C 127.976,28.1666 126.143,23.5 120.5,20.5C 119.671,15.1975 119.171,9.86421 119,4.5C 118.578,2.5743 117.411,1.5743 115.5,1.5C 114.833,0.833333 114.167,0.166667 113.5,-0.5C 150.833,-0.5 188.167,-0.5 225.5,-0.5C 225.5,38.8333 225.5,78.1667 225.5,117.5C 224.778,117.082 224.278,116.416 224,115.5C 223.692,116.308 223.192,116.975 222.5,117.5C 221.583,116.873 220.583,116.539 219.5,116.5C 220.401,118.727 222.067,119.727 224.5,119.5C 224.198,122.059 224.532,124.393 225.5,126.5C 225.5,158.5 225.5,190.5 225.5,222.5C 150.167,222.5 74.8333,222.5 -0.5,222.5C -0.5,148.167 -0.5,73.8333 -0.5,-0.5 Z"/></g>
<g><path style="opacity:1" fill="#6e6e6e" d="M 109.5,-0.5 C 110.833,-0.5 112.167,-0.5 113.5,-0.5C 114.167,0.166667 114.833,0.833333 115.5,1.5C 111.567,0.857397 108.234,1.8574 105.5,4.5C 105.167,4.5 104.833,4.5 104.5,4.5C 105.861,2.47266 107.527,0.805998 109.5,-0.5 Z"/></g>
<g><path style="opacity:1" fill="#202020" d="M 104.5,4.5 C 104.833,4.5 105.167,4.5 105.5,4.5C 105.5,5.83333 105.5,7.16667 105.5,8.5C 111.313,8.34434 111.646,9.01101 106.5,10.5C 105.481,12.4595 105.481,14.4595 106.5,16.5C 105.903,16.7352 105.57,17.2352 105.5,18C 106.056,19.0111 106.722,19.8444 107.5,20.5C 106.5,20.5 105.5,20.5 104.5,20.5C 104.5,15.1667 104.5,9.83333 104.5,4.5 Z"/></g>
<g><path style="opacity:1" fill="#f4f4f4" d="M 115.5,1.5 C 116.749,3.82851 116.082,5.66184 113.5,7C 116.542,6.80762 118.209,8.14096 118.5,11C 118.073,14.0234 116.739,16.5234 114.5,18.5C 111.549,18.7128 108.882,18.0461 106.5,16.5C 105.481,14.4595 105.481,12.4595 106.5,10.5C 111.646,9.01101 111.313,8.34434 105.5,8.5C 105.5,7.16667 105.5,5.83333 105.5,4.5C 108.234,1.8574 111.567,0.857397 115.5,1.5 Z"/></g>
<g><path style="opacity:1" fill="#4b4b4b" d="M 115.5,1.5 C 117.411,1.5743 118.578,2.5743 119,4.5C 119.171,9.86421 119.671,15.1975 120.5,20.5C 126.143,23.5 127.976,28.1666 126,34.5C 126.911,28.4512 124.745,24.1179 119.5,21.5C 118.85,21.1961 118.183,20.8627 117.5,20.5C 116.828,21.9492 116.161,23.2825 115.5,24.5C 115.795,22.2646 115.461,20.2646 114.5,18.5C 116.739,16.5234 118.073,14.0234 118.5,11C 118.209,8.14096 116.542,6.80762 113.5,7C 116.082,5.66184 116.749,3.82851 115.5,1.5 Z"/></g>
<g><path style="opacity:1" fill="#858585" d="M 106.5,16.5 C 108.882,18.0461 111.549,18.7128 114.5,18.5C 113.134,20.3505 111.467,20.6838 109.5,19.5C 108.571,20.6888 108.238,22.0222 108.5,23.5C 107.596,22.791 107.263,21.791 107.5,20.5C 106.722,19.8444 106.056,19.0111 105.5,18C 105.57,17.2352 105.903,16.7352 106.5,16.5 Z"/></g>
<g><path style="opacity:1" fill="#f8f8f8" d="M 114.5,18.5 C 115.461,20.2646 115.795,22.2646 115.5,24.5C 112.45,28.8018 110.116,28.4684 108.5,23.5C 108.238,22.0222 108.571,20.6888 109.5,19.5C 111.467,20.6838 113.134,20.3505 114.5,18.5 Z"/></g>
<g><path style="opacity:1" fill="#cecece" d="M 117.5,16.5 C 118.776,17.3864 118.776,18.3864 117.5,19.5C 116.438,18.5754 116.438,17.5754 117.5,16.5 Z"/></g>
<g><path style="opacity:1" fill="#4e4e4e" d="M 102.5,21.5 C 102.027,22.9063 101.027,23.573 99.5,23.5C 99.9731,22.0937 100.973,21.427 102.5,21.5 Z"/></g>
<g><path style="opacity:1" fill="#276c9a" d="M 102.5,21.5 C 102.842,20.6618 103.508,20.3284 104.5,20.5C 105.5,20.5 106.5,20.5 107.5,20.5C 107.263,21.791 107.596,22.791 108.5,23.5C 110.116,28.4684 112.45,28.8018 115.5,24.5C 116.161,23.2825 116.828,21.9492 117.5,20.5C 118.183,20.8627 118.85,21.1961 119.5,21.5C 119.396,23.7028 118.73,25.7028 117.5,27.5C 116.094,27.9731 115.427,28.9731 115.5,30.5C 114.206,31.2899 113.039,32.2899 112,33.5C 108.059,29.8648 104.893,25.8648 102.5,21.5 Z"/></g>
<g><path style="opacity:1" fill="#545454" d="M 99.5,23.5 C 98.9196,27.1419 98.4196,30.8086 98,34.5C 97.3333,31.5 97.3333,28.5 98,25.5C 98.2784,24.5842 98.7784,23.9175 99.5,23.5 Z"/></g>
<g><path style="opacity:1" fill="#5b5b5b" d="M 177.5,27.5 C 178.552,27.3505 179.552,27.5172 180.5,28C 178.598,29.3011 176.598,29.9678 174.5,30C 175.571,29.1482 176.571,28.3149 177.5,27.5 Z"/></g>
<g><path style="opacity:1" fill="#575757" d="M 182.5,30.5 C 183.497,29.2875 184.497,29.4542 185.5,31C 184.423,31.4696 183.423,31.3029 182.5,30.5 Z"/></g>
<g><path style="opacity:1" fill="#f7f7f7" d="M 49.5,26.5 C 49.5394,27.5832 49.8728,28.5832 50.5,29.5C 41.2589,30.8135 41.2589,31.4802 50.5,31.5C 51.1039,36.9756 48.7706,40.309 43.5,41.5C 42.205,40.5116 40.8717,39.5116 39.5,38.5C 39.3367,36.1432 39.5034,33.8098 40,31.5C 40.7504,30.8742 41.5838,30.3742 42.5,30C 41.376,29.7508 40.376,29.2508 39.5,28.5C 40.4118,26.2569 42.0785,25.2569 44.5,25.5C 46.2073,25.7284 47.874,26.0617 49.5,26.5 Z"/></g>
<g><path style="opacity:1" fill="#40505f" d="M 117.5,27.5 C 120.244,28.0717 121.077,29.7383 120,32.5C 117.776,33.6407 116.276,32.974 115.5,30.5C 115.427,28.9731 116.094,27.9731 117.5,27.5 Z"/></g>
<g><path style="opacity:1" fill="#535353" d="M 170.5,31.5 C 172.975,31.7467 172.975,32.4134 170.5,33.5C 169.537,33.0302 169.537,32.3635 170.5,31.5 Z"/></g>
<g><path style="opacity:1" fill="#535353" d="M 190.5,34.5 C 189.244,34.5386 188.244,34.0386 187.5,33C 188.998,32.4153 189.998,32.9153 190.5,34.5 Z"/></g>
<g><path style="opacity:1" fill="#727272" d="M 49.5,26.5 C 47.874,26.0617 46.2073,25.7284 44.5,25.5C 42.0785,25.2569 40.4118,26.2569 39.5,28.5C 40.376,29.2508 41.376,29.7508 42.5,30C 41.5838,30.3742 40.7504,30.8742 40,31.5C 39.5034,33.8098 39.3367,36.1432 39.5,38.5C 37.0364,34.7223 36.8697,30.7223 39,26.5C 42.6239,22.533 46.1239,22.533 49.5,26.5 Z"/></g>
<g><path style="opacity:1" fill="#3d7eb1" d="M 178.5,31.5 C 181.607,32.8887 184.607,34.5554 187.5,36.5C 188.662,41.467 188.829,46.467 188,51.5C 185.262,53.9074 182.262,55.9074 179,57.5C 176.259,56.2115 173.759,54.5448 171.5,52.5C 170.337,47.1977 170.171,41.8643 171,36.5C 173.479,34.6859 175.979,33.0192 178.5,31.5 Z"/></g>
<g><path style="opacity:1" fill="#f9fbfc" d="M 178.5,33.5 C 184.161,34.8053 186.828,38.3053 186.5,44C 187.259,49.9154 184.759,53.7487 179,55.5C 177.01,54.1818 175.01,52.8485 173,51.5C 172.333,46.8333 172.333,42.1667 173,37.5C 175.015,36.3034 176.849,34.9701 178.5,33.5 Z"/></g>
<g><path style="opacity:1" fill="#4d4d4d" d="M 190.5,34.5 C 191.653,40.6529 191.82,46.9863 191,53.5C 190.583,54.756 189.75,55.4226 188.5,55.5C 188.987,54.5266 189.487,53.5266 190,52.5C 190.499,46.5092 190.666,40.5092 190.5,34.5 Z"/></g>
<g><path style="opacity:1" fill="#5a5b5c" d="M 49.5,26.5 C 50.1174,26.6107 50.6174,26.944 51,27.5C 51.9474,32.0303 51.4474,36.3636 49.5,40.5C 49.8627,41.1835 50.1961,41.8501 50.5,42.5C 49.1667,43.8333 47.8333,45.1667 46.5,46.5C 47.4731,44.9317 47.6397,43.265 47,41.5C 45.7083,42.7911 44.5417,42.7911 43.5,41.5C 48.7706,40.309 51.1039,36.9756 50.5,31.5C 41.2589,31.4802 41.2589,30.8135 50.5,29.5C 49.8728,28.5832 49.5394,27.5832 49.5,26.5 Z"/></g>
<g><path style="opacity:1" fill="#f5f5f5" d="M 43.5,41.5 C 44.5417,42.7911 45.7083,42.7911 47,41.5C 47.6397,43.265 47.4731,44.9317 46.5,46.5C 44.7085,46.634 43.0418,46.3007 41.5,45.5C 41.1568,43.5168 41.8235,42.1834 43.5,41.5 Z"/></g>
<g><path style="opacity:1" fill="#44494f" d="M 39.5,38.5 C 40.8717,39.5116 42.205,40.5116 43.5,41.5C 41.8235,42.1834 41.1568,43.5168 41.5,45.5C 40.7321,44.7375 40.2321,43.7375 40,42.5C 39.0053,43.0659 38.172,43.7326 37.5,44.5C 36.1526,45.0283 34.8193,45.195 33.5,45C 35.6705,43.4138 38.0038,42.0804 40.5,41C 39.7476,40.3292 39.4142,39.4959 39.5,38.5 Z"/></g>
<g><path style="opacity:1" fill="#226896" d="M 41.5,45.5 C 43.0418,46.3007 44.7085,46.634 46.5,46.5C 47.8333,45.1667 49.1667,43.8333 50.5,42.5C 51.9217,42.7086 53.255,43.2086 54.5,44C 53.552,44.4828 52.552,44.6495 51.5,44.5C 51.0693,48.568 48.736,50.568 44.5,50.5C 40.264,50.568 37.9307,48.568 37.5,44.5C 38.172,43.7326 39.0053,43.0659 40,42.5C 40.2321,43.7375 40.7321,44.7375 41.5,45.5 Z"/></g>
<g><path style="opacity:1" fill="#484848" d="M 56.5,46.5 C 57.6266,47.1217 58.6266,47.955 59.5,49C 57.5,48.3333 55.5,48.3333 53.5,49C 54.5707,48.1482 55.5707,47.3149 56.5,46.5 Z"/></g>
<g><path style="opacity:1" fill="#878787" d="M 52.5,64.5 C 50.9826,64.4894 49.8159,63.8228 49,62.5C 48.3333,58.8333 48.3333,55.1667 49,51.5C 49.414,51.0426 49.914,50.7093 50.5,50.5C 50.4548,54.2315 50.6214,58.2315 51,62.5C 51.7172,63.0442 52.2172,63.7109 52.5,64.5 Z"/></g>
<g><path style="opacity:1" fill="#3b3b3b" d="M 171.5,56.5 C 169.629,56.1412 168.129,55.1412 167,53.5C 166.333,47.1667 166.333,40.8333 167,34.5C 167.333,40.5 167.667,46.5 168,52.5C 169.376,53.7051 170.542,55.0384 171.5,56.5 Z"/></g>
<g><path style="opacity:1" fill="#6d6d6d" d="M 60.5,64.5 C 60.7828,63.7109 61.2828,63.0442 62,62.5C 62.3786,58.2315 62.5452,54.2315 62.5,50.5C 63.6609,54.7953 63.8275,59.1287 63,63.5C 62.3292,64.2524 61.4959,64.5858 60.5,64.5 Z"/></g>
<g><path style="opacity:1" fill="#151515" d="M 102.5,50.5 C 134.252,48.1179 156.418,61.4512 169,90.5C 176.914,118.419 169.748,141.586 147.5,160C 121.772,175.953 96.7721,174.953 72.5,157C 47.8095,131.426 44.9762,103.592 64,73.5C 74.2316,61.3077 87.0649,53.6411 102.5,50.5 Z"/></g>
<g><path style="opacity:1" fill="#fafaf9" d="M 106.5,51.5 C 134.944,51.1318 155.111,63.7985 167,89.5C 176.165,120.983 166.998,145.483 139.5,163C 107.121,176.535 80.9546,169.035 61,140.5C 46.0139,107.942 52.8472,81.1086 81.5,60C 89.4497,55.6286 97.783,52.7953 106.5,51.5 Z"/></g>
<g><path style="opacity:1" fill="#595959" d="M 188.5,55.5 C 188.027,56.9063 187.027,57.573 185.5,57.5C 185.973,56.0937 186.973,55.427 188.5,55.5 Z"/></g>
<g><path style="opacity:1" fill="#5b5b5b" d="M 171.5,56.5 C 173.027,56.427 174.027,57.0937 174.5,58.5C 172.973,58.573 171.973,57.9063 171.5,56.5 Z"/></g>
<g><path style="opacity:1" fill="#565656" d="M 185.5,57.5 C 184.738,59.2624 183.404,60.2624 181.5,60.5C 182.262,58.7376 183.596,57.7376 185.5,57.5 Z"/></g>
<g><path style="opacity:1" fill="#2676ac" d="M 54.5,50.5 C 56.9363,50.317 59.103,50.9837 61,52.5C 61.6667,55.5 61.6667,58.5 61,61.5C 58,65.5 55,65.5 52,61.5C 51.3333,58.5 51.3333,55.5 52,52.5C 52.9947,51.9341 53.828,51.2674 54.5,50.5 Z"/></g>
<g><path style="opacity:1" fill="#f8fafc" d="M 54.5,52.5 C 56.1439,52.2865 57.6439,52.6198 59,53.5C 59.8184,56.2272 59.6517,58.8938 58.5,61.5C 54.959,62.874 53.2924,61.5406 53.5,57.5C 53.5916,55.7422 53.925,54.0755 54.5,52.5 Z"/></g>
<g><path style="opacity:1" fill="#7f7f7f" d="M 174.5,58.5 C 176.558,59.9331 178.892,60.5997 181.5,60.5C 178.764,62.6874 176.431,62.0207 174.5,58.5 Z"/></g>
<g><path style="opacity:1" fill="#4e4e4e" d="M 52.5,64.5 C 54.1667,65.1667 55.8333,65.8333 57.5,66.5C 55.2572,67.8584 53.5905,67.1917 52.5,64.5 Z"/></g>
<g><path style="opacity:1" fill="#4d4d4d" d="M 60.5,64.5 C 60.0269,65.9063 59.0269,66.573 57.5,66.5C 57.9731,65.0937 58.9731,64.427 60.5,64.5 Z"/></g>
<g><path style="opacity:1" fill="#949494" d="M 20.5,90.5 C 20.1667,90.5 19.8333,90.5 19.5,90.5C 16.272,89.5863 12.9387,89.2529 9.5,89.5C 9.61071,88.8826 9.94404,88.3826 10.5,88C 13.1667,87.3333 15.8333,87.3333 18.5,88C 19.3805,88.7083 20.0472,89.5416 20.5,90.5 Z"/></g>
<g><path style="opacity:1" fill="#eeeeee" d="M 9.5,89.5 C 12.9387,89.2529 16.272,89.5863 19.5,90.5C 17.3647,92.369 14.6981,93.0356 11.5,92.5C 9.95186,92.1788 9.28519,91.1788 9.5,89.5 Z"/></g>
<g><path style="opacity:1" fill="#878787" d="M 207.5,90.5 C 211.167,90.1636 214.5,90.997 217.5,93C 213.519,92.2512 209.519,92.4179 205.5,93.5C 205.167,93.3333 204.833,93.1667 204.5,93C 205.571,92.1482 206.571,91.3149 207.5,90.5 Z"/></g>
<g><path style="opacity:1" fill="#293341" d="M 19.5,90.5 C 19.8333,90.5 20.1667,90.5 20.5,90.5C 21.2354,93.0615 22.5687,95.2282 24.5,97C 24.1639,98.0299 23.4972,98.5299 22.5,98.5C 23.5981,97.603 23.5981,96.7697 22.5,96C 21.2068,95.51 19.8734,95.3433 18.5,95.5C 18.9175,94.7784 19.5842,94.2784 20.5,94C 17.3054,93.8195 14.3054,93.3195 11.5,92.5C 14.6981,93.0356 17.3647,92.369 19.5,90.5 Z"/></g>
<g><path style="opacity:1" fill="#2e6d99" d="M 9.5,89.5 C 9.28519,91.1788 9.95186,92.1788 11.5,92.5C 14.3054,93.3195 17.3054,93.8195 20.5,94C 19.5842,94.2784 18.9175,94.7784 18.5,95.5C 18.1667,95.5 17.8333,95.5 17.5,95.5C 14.5176,95.0371 11.5176,94.7038 8.5,94.5C 8.73731,93.209 8.40397,92.209 7.5,91.5C 7.83333,90.5 8.5,89.8333 9.5,89.5 Z"/></g>
<g><path style="opacity:1" fill="#1d344a" d="M 7.5,91.5 C 8.40397,92.209 8.73731,93.209 8.5,94.5C 11.5176,94.7038 14.5176,95.0371 17.5,95.5C 16.7261,96.1471 15.7261,96.4805 14.5,96.5C 11.8214,96.0643 9.15475,95.5643 6.5,95C 7.33663,93.9887 7.66997,92.8221 7.5,91.5 Z"/></g>
<g><path style="opacity:1" fill="#656565" d="M 22.5,98.5 C 21.9101,99.766 21.4101,101.099 21,102.5C 20.5172,101.552 20.3505,100.552 20.5,99.5C 16.6175,100.637 12.7842,100.637 9,99.5C 8.50649,101.134 8.33982,102.801 8.5,104.5C 7.83333,104.5 7.16667,104.5 6.5,104.5C 6.61071,103.883 6.94404,103.383 7.5,103C 6.03263,100.599 5.19929,98.0987 5,95.5C 5.37424,96.4162 5.87424,97.2496 6.5,98C 9.18794,98.3924 11.8546,98.8924 14.5,99.5C 17.1147,98.7308 19.7814,98.3975 22.5,98.5 Z"/></g>
<g><path style="opacity:1" fill="#686868" d="M 209.5,110.5 C 207.824,111.183 207.157,112.517 207.5,114.5C 206.833,113.167 206.167,111.833 205.5,110.5C 203.686,105.32 202.852,99.9864 203,94.5C 208.333,95.8333 213.667,95.8333 219,94.5C 218.992,98.8832 218.326,103.216 217,107.5C 216.503,105.19 216.337,102.857 216.5,100.5C 212.818,100.665 209.152,100.499 205.5,100C 208.833,99.6667 212.167,99.3333 215.5,99C 216.308,98.6924 216.975,98.1924 217.5,97.5C 213.217,96.5078 208.884,96.1744 204.5,96.5C 203.302,102.398 204.968,107.065 209.5,110.5 Z"/></g>
<g><path style="opacity:1" fill="#fcbb49" d="M 102.5,102.5 C 102.948,100.535 103.948,100.202 105.5,101.5C 104.675,102.386 103.675,102.719 102.5,102.5 Z"/></g>
<g><path style="opacity:1" fill="#faaf13" d="M 107.5,100.5 C 109.337,100.639 109.67,101.306 108.5,102.5C 107.702,102.043 107.369,101.376 107.5,100.5 Z"/></g>
<g><path style="opacity:1" fill="#faae1d" d="M 100.5,102.5 C 94.9446,103.985 89.278,105.152 83.5,106C 80.3949,108.254 79.7283,111.087 81.5,114.5C 79.6208,113.659 77.6208,113.325 75.5,113.5C 75.9641,103.381 81.2975,99.0473 91.5,100.5C 94.9134,100.517 97.9134,101.184 100.5,102.5 Z"/></g>
<g><path style="opacity:1" fill="#faae19" d="M 122.5,110.5 C 120.5,110.5 118.5,110.5 116.5,110.5C 118.364,107.277 120.364,104.11 122.5,101C 130.853,100.168 139.187,100.335 147.5,101.5C 147.023,102.478 146.357,103.311 145.5,104C 139.167,104.333 132.833,104.667 126.5,105C 125.303,107.015 123.97,108.849 122.5,110.5 Z"/></g>
<g><path style="opacity:1" fill="#484848" d="M 6.5,104.5 C 5.89022,105.391 5.55688,106.391 5.5,107.5C 4.11484,106.053 4.44818,105.053 6.5,104.5 Z"/></g>
<g><path style="opacity:1" fill="#616161" d="M 23.5,105.5 C 22.5041,105.586 21.6708,105.252 21,104.5C 20.1841,105.823 19.0174,106.489 17.5,106.5C 19.1853,103.145 21.1853,102.811 23.5,105.5 Z"/></g>
<g><path style="opacity:1" fill="#2d2d2d" d="M 8.5,104.5 C 11.2617,104.886 12.2617,106.219 11.5,108.5C 12.1925,109.518 12.8592,110.518 13.5,111.5C 12.5041,111.586 11.6708,111.252 11,110.5C 10.7641,108.189 9.93073,106.189 8.5,104.5 Z"/></g>
<g><path style="opacity:1" fill="#444444" d="M 17.5,106.5 C 17.5489,111.539 16.8823,111.705 15.5,107C 16.0944,106.536 16.7611,106.369 17.5,106.5 Z"/></g>
<g><path style="opacity:1" fill="#121212" d="M 5.5,107.5 C 6.5,107.833 7.16667,108.5 7.5,109.5C 6.83333,109.5 6.16667,109.5 5.5,109.5C 5.5,108.833 5.5,108.167 5.5,107.5 Z"/></g>
<g><path style="opacity:1" fill="#636363" d="M 5.5,109.5 C 5.02694,110.906 4.02694,111.573 2.5,111.5C 2.97306,110.094 3.97306,109.427 5.5,109.5 Z"/></g>
<g><path style="opacity:1" fill="#646464" d="M 7.5,109.5 C 8.28913,109.783 8.9558,110.283 9.5,111C 9.0698,111.92 8.73647,112.753 8.5,113.5C 7.57131,112.311 7.23798,110.978 7.5,109.5 Z"/></g>
<g><path style="opacity:1" fill="#f99c27" d="M 127.5,108.5 C 133.868,108.17 140.202,108.504 146.5,109.5C 146.023,110.478 145.357,111.311 144.5,112C 140.848,112.499 137.182,112.665 133.5,112.5C 133.5,113.833 133.5,115.167 133.5,116.5C 138.511,116.334 143.511,116.501 148.5,117C 147.5,118 146.5,119 145.5,120C 139.509,120.499 133.509,120.666 127.5,120.5C 127.5,116.5 127.5,112.5 127.5,108.5 Z"/></g>
<g><path style="opacity:1" fill="#f8f8f8" d="M 209.5,110.5 C 210.672,111.705 212.005,111.705 213.5,110.5C 214.429,111.689 214.762,113.022 214.5,114.5C 212.059,115.756 209.726,115.756 207.5,114.5C 207.157,112.517 207.824,111.183 209.5,110.5 Z"/></g>
<g><path style="opacity:1" fill="#6c6c6c" d="M 23.5,105.5 C 24.6527,106.313 24.6527,107.313 23.5,108.5C 28.5631,112.356 30.2298,117.356 28.5,123.5C 27.8473,119.765 27.0139,116.099 26,112.5C 24.4207,110.959 22.5873,109.792 20.5,109C 21.7101,107.961 22.7101,106.794 23.5,105.5 Z"/></g>
<g><path style="opacity:1" fill="#3b4551" d="M 218.5,113.5 C 218.44,112.957 218.107,112.624 217.5,112.5C 216.482,113.193 215.482,113.859 214.5,114.5C 214.762,113.022 214.429,111.689 213.5,110.5C 212.005,111.705 210.672,111.705 209.5,110.5C 211.258,110.123 212.925,109.456 214.5,108.5C 216.8,110.781 219.466,112.614 222.5,114C 221.181,114.195 219.847,114.028 218.5,113.5 Z"/></g>
<g><path style="opacity:1" fill="#2d6187" d="M 205.5,110.5 C 206.167,111.833 206.833,113.167 207.5,114.5C 209.726,115.756 212.059,115.756 214.5,114.5C 215.482,113.859 216.482,113.193 217.5,112.5C 218.107,112.624 218.44,112.957 218.5,113.5C 218.557,114.609 218.89,115.609 219.5,116.5C 215.521,117.276 214.854,119.109 217.5,122C 216.667,124.5 215.167,125 213,123.5C 212.51,122.207 212.343,120.873 212.5,119.5C 210.801,119.66 209.134,119.494 207.5,119C 204.17,117.472 201.837,115.639 200.5,113.5C 201.965,112.263 203.632,111.263 205.5,110.5 Z"/></g>
<g><path style="opacity:1" fill="#3b3b3b" d="M 2.5,111.5 C 2.53859,112.756 2.03859,113.756 1,114.5C 0.415303,113.002 0.915303,112.002 2.5,111.5 Z"/></g>
<g><path style="opacity:1" fill="#f99c29" d="M 100.5,102.5 C 101.167,102.5 101.833,102.5 102.5,102.5C 105.827,105.938 108.827,109.771 111.5,114C 112.167,114.667 112.833,114.667 113.5,114C 114.163,112.482 115.163,111.315 116.5,110.5C 118.5,110.5 120.5,110.5 122.5,110.5C 120.049,114.124 117.383,117.624 114.5,121C 113.167,121.667 111.833,121.667 110.5,121C 106.649,116.81 103.149,112.31 100,107.5C 100.019,105.893 100.185,104.226 100.5,102.5 Z"/></g>
<g><path style="opacity:1" fill="#656565" d="M 15.5,116.5 C 16.2544,114.554 17.5878,113.721 19.5,114C 18.5291,115.481 17.1958,116.315 15.5,116.5 Z"/></g>
<g><path style="opacity:1" fill="#484848" d="M 200.5,113.5 C 199.878,114.627 199.045,115.627 198,116.5C 197.481,114.511 198.314,113.511 200.5,113.5 Z"/></g>
<g><path style="opacity:1" fill="#1f1f1f" d="M 13.5,111.5 C 14.1667,113.167 14.8333,114.833 15.5,116.5C 14.7904,118.746 14.2904,121.08 14,123.5C 13.9546,120.666 13.1213,118.166 11.5,116C 13.1066,114.951 13.7733,113.451 13.5,111.5 Z"/></g>
<g><path style="opacity:1" fill="#f7922a" d="M 75.5,113.5 C 77.6208,113.325 79.6208,113.659 81.5,114.5C 82.4734,114.987 83.4734,115.487 84.5,116C 90.1667,116.333 95.8333,116.667 101.5,117C 100.743,118.512 99.7433,119.846 98.5,121C 91.9456,122.081 85.6123,121.414 79.5,119C 77.5612,117.568 76.2279,115.735 75.5,113.5 Z"/></g>
<g><path style="opacity:1" fill="#444444" d="M 225.5,117.5 C 225.5,120.5 225.5,123.5 225.5,126.5C 224.532,124.393 224.198,122.059 224.5,119.5C 222.067,119.727 220.401,118.727 219.5,116.5C 220.583,116.539 221.583,116.873 222.5,117.5C 223.192,116.975 223.692,116.308 224,115.5C 224.278,116.416 224.778,117.082 225.5,117.5 Z"/></g>
<g><path style="opacity:1" fill="#45596c" d="M 20.5,115.5 C 22.4841,115.484 23.4841,116.484 23.5,118.5C 23.5658,120.266 22.7324,121.266 21,121.5C 17.9113,119.796 17.7446,117.796 20.5,115.5 Z"/></g>
<g><path style="opacity:1" fill="#7c7c7c" d="M 196.5,117.5 C 197.873,117.343 199.207,117.51 200.5,118C 199.747,119.487 198.914,119.654 198,118.5C 197.818,121.226 197.318,123.893 196.5,126.5C 195.357,123.502 195.357,120.502 196.5,117.5 Z"/></g>
<g><path style="opacity:1" fill="#37383a" d="M 199.5,148.5 C 200.496,148.414 201.329,148.748 202,149.5C 202.167,151.167 202.333,152.833 202.5,154.5C 202.712,157.011 202.045,159.178 200.5,161C 203.492,162.315 205.825,164.315 207.5,167C 207.333,167.5 207.167,168 207,168.5C 206.34,166.676 205.173,165.343 203.5,164.5C 201.805,163.174 200.472,163.507 199.5,165.5C 199.768,163.901 199.434,162.568 198.5,161.5C 200.984,159.455 201.984,156.788 201.5,153.5C 198.881,153.768 196.381,153.435 194,152.5C 192.648,154.594 192.148,156.927 192.5,159.5C 191.359,156.36 191.192,153.027 192,149.5C 194.357,147.354 196.857,147.021 199.5,148.5 Z"/></g>
<g><path style="opacity:1" fill="#fcfcfc" d="M 199.5,148.5 C 200.141,149.482 200.807,150.482 201.5,151.5C 198.465,152.665 195.465,152.498 192.5,151C 194.321,148.863 196.654,148.03 199.5,148.5 Z"/></g>
<g><path style="opacity:1" fill="#fcfcfc" d="M 198.5,161.5 C 196.315,161.296 194.315,160.63 192.5,159.5C 192.148,156.927 192.648,154.594 194,152.5C 196.381,153.435 198.881,153.768 201.5,153.5C 201.984,156.788 200.984,159.455 198.5,161.5 Z"/></g>
<g><path style="opacity:1" fill="#6a9dc3" d="M 29.5,164.5 C 30.038,162.883 30.3713,161.216 30.5,159.5C 28.2075,159.756 26.0408,159.423 24,158.5C 22.3115,160.32 22.1448,162.32 23.5,164.5C 21.9735,163.508 21.3068,162.008 21.5,160C 21.4537,158.272 21.9537,156.772 23,155.5C 24.8201,158.203 27.3201,159.036 30.5,158C 29.1669,156.16 29.3335,155.66 31,156.5C 31.6667,158.833 31.6667,161.167 31,163.5C 30.6174,164.056 30.1174,164.389 29.5,164.5 Z"/></g>
<g><path style="opacity:1" fill="#f8fafc" d="M 29.5,164.5 C 27.5,165.833 25.5,165.833 23.5,164.5C 22.1448,162.32 22.3115,160.32 24,158.5C 26.0408,159.423 28.2075,159.756 30.5,159.5C 30.3713,161.216 30.038,162.883 29.5,164.5 Z"/></g>
<g><path style="opacity:1" fill="#575d65" d="M 192.5,159.5 C 194.315,160.63 196.315,161.296 198.5,161.5C 197.432,162.434 196.099,162.768 194.5,162.5C 194.5,163.5 194.5,164.5 194.5,165.5C 195.833,165.5 197.167,165.5 198.5,165.5C 197.081,166.451 195.415,166.784 193.5,166.5C 193.306,162.995 192.306,162.662 190.5,165.5C 189.798,164.884 188.798,164.884 187.5,165.5C 188.406,164.035 189.739,163.035 191.5,162.5C 192.386,161.675 192.719,160.675 192.5,159.5 Z"/></g>
<g><path style="opacity:1" fill="#f8f8f8" d="M 198.5,161.5 C 199.434,162.568 199.768,163.901 199.5,165.5C 199.167,165.5 198.833,165.5 198.5,165.5C 197.167,165.5 195.833,165.5 194.5,165.5C 194.5,164.5 194.5,163.5 194.5,162.5C 196.099,162.768 197.432,162.434 198.5,161.5 Z"/></g>
<g><path style="opacity:1" fill="#6197c0" d="M 23.5,164.5 C 25.5,165.833 27.5,165.833 29.5,164.5C 30.0577,165.79 31.0577,166.623 32.5,167C 30.3761,167.958 28.3761,169.125 26.5,170.5C 24.6984,169.014 22.6984,168.014 20.5,167.5C 21.6935,166.728 22.6935,165.728 23.5,164.5 Z"/></g>
<g><path style="opacity:1" fill="#fcfcfd" d="M 24.5,166.5 C 25.9778,166.238 27.3112,166.571 28.5,167.5C 27.8333,167.833 27.1667,168.167 26.5,168.5C 25.2867,168.253 24.62,167.586 24.5,166.5 Z"/></g>
<g><path style="opacity:1" fill="#166da1" d="M 198.5,165.5 C 198.833,165.5 199.167,165.5 199.5,165.5C 200.472,163.507 201.805,163.174 203.5,164.5C 201.752,169.182 198.419,170.682 193.5,169C 192.29,167.961 191.29,166.794 190.5,165.5C 192.306,162.662 193.306,162.995 193.5,166.5C 195.415,166.784 197.081,166.451 198.5,165.5 Z"/></g>
<g><path style="opacity:1" fill="#262626" d="M 45.5,169.5 C 43.4352,169.517 41.4352,169.85 39.5,170.5C 40.1342,169.053 41.3009,168.387 43,168.5C 44.0698,168.528 44.9032,168.861 45.5,169.5 Z"/></g>
<g><path style="opacity:1" fill="#fafafa" d="M 45.5,169.5 C 46.1408,170.482 46.8075,171.482 47.5,172.5C 45.2351,173.647 42.9018,173.814 40.5,173C 39.7476,172.329 39.4142,171.496 39.5,170.5C 41.4352,169.85 43.4352,169.517 45.5,169.5 Z"/></g>
<g><path style="opacity:1" fill="#2b2b2b" d="M 187.5,165.5 C 186.863,168.456 186.363,171.456 186,174.5C 185.333,171.833 185.333,169.167 186,166.5C 186.383,165.944 186.883,165.611 187.5,165.5 Z"/></g>
<g><path style="opacity:1" fill="#6da0c4" d="M 20.5,167.5 C 18.9304,169.851 18.0971,172.518 18,175.5C 17.3333,173.167 17.3333,170.833 18,168.5C 18.6708,167.748 19.5041,167.414 20.5,167.5 Z"/></g>
<g><path style="opacity:1" fill="#474748" d="M 45.5,169.5 C 46.4959,169.414 47.3292,169.748 48,170.5C 48.8075,174.027 48.6408,177.36 47.5,180.5C 47.5,178.5 47.5,176.5 47.5,174.5C 38.5329,172.761 36.5329,175.428 41.5,182.5C 40.5655,183.568 40.2322,184.901 40.5,186.5C 39.7777,185.449 38.7777,184.782 37.5,184.5C 38.0906,183.849 38.7573,183.182 39.5,182.5C 37.5105,179.111 37.0105,175.444 38,171.5C 38.3826,170.944 38.8826,170.611 39.5,170.5C 39.4142,171.496 39.7476,172.329 40.5,173C 42.9018,173.814 45.2351,173.647 47.5,172.5C 46.8075,171.482 46.1408,170.482 45.5,169.5 Z"/></g>
<g><path style="opacity:1" fill="#f9f9f9" d="M 47.5,180.5 C 45.8583,182.081 43.8583,182.747 41.5,182.5C 36.5329,175.428 38.5329,172.761 47.5,174.5C 47.5,176.5 47.5,178.5 47.5,180.5 Z"/></g>
<g><path style="opacity:1" fill="#484848" d="M 170.5,181.5 C 164.919,180.314 164.586,179.814 169.5,180C 170.056,180.383 170.389,180.883 170.5,181.5 Z"/></g>
<g><path style="opacity:1" fill="#505050" d="M 167.5,185.5 C 166.22,186.931 164.553,187.598 162.5,187.5C 162.253,189.858 162.919,191.858 164.5,193.5C 163.504,193.586 162.671,193.252 162,192.5C 161.502,189.518 161.335,186.518 161.5,183.5C 161.511,181.314 162.511,180.481 164.5,181C 162.675,182.466 162.175,184.299 163,186.5C 164.356,185.62 165.856,185.286 167.5,185.5 Z"/></g>
<g><path style="opacity:1" fill="#e9e9e9" d="M 41.5,182.5 C 42.5676,183.434 43.901,183.768 45.5,183.5C 45.5,184.5 45.5,185.5 45.5,186.5C 43.9504,187.72 42.2837,187.72 40.5,186.5C 40.2322,184.901 40.5655,183.568 41.5,182.5 Z"/></g>
<g><path style="opacity:1" fill="#484c53" d="M 47.5,180.5 C 47.281,181.675 47.6143,182.675 48.5,183.5C 49.7387,183.942 50.7387,184.609 51.5,185.5C 50.8333,185.5 50.1667,185.5 49.5,185.5C 47.8049,184.174 46.4716,184.507 45.5,186.5C 45.5,185.5 45.5,184.5 45.5,183.5C 43.901,183.768 42.5676,183.434 41.5,182.5C 43.8583,182.747 45.8583,182.081 47.5,180.5 Z"/></g>
<g><path style="opacity:1" fill="#2e2e2e" d="M 170.5,183.5 C 170.179,185.048 169.179,185.715 167.5,185.5C 168.29,184.599 169.29,183.932 170.5,183.5 Z"/></g>
<g><path style="opacity:1" fill="#f5f5f5" d="M 170.5,183.5 C 171.634,185.966 171.801,188.633 171,191.5C 170.617,192.056 170.117,192.389 169.5,192.5C 167.958,193.301 166.292,193.634 164.5,193.5C 162.919,191.858 162.253,189.858 162.5,187.5C 164.553,187.598 166.22,186.931 167.5,185.5C 169.179,185.715 170.179,185.048 170.5,183.5 Z"/></g>
<g><path style="opacity:1" fill="#1b1b1b" d="M 170.5,181.5 C 171.117,181.611 171.617,181.944 172,182.5C 172.499,186.821 172.666,191.154 172.5,195.5C 171.222,195.782 170.222,196.449 169.5,197.5C 169.5,196.5 169.5,195.5 169.5,194.5C 169.5,193.833 169.5,193.167 169.5,192.5C 170.117,192.389 170.617,192.056 171,191.5C 171.801,188.633 171.634,185.966 170.5,183.5C 170.5,182.833 170.5,182.167 170.5,181.5 Z"/></g>
<g><path style="opacity:1" fill="#1a6b9e" d="M 35.5,185.5 C 35.8417,184.662 36.5084,184.328 37.5,184.5C 38.7777,184.782 39.7777,185.449 40.5,186.5C 42.2837,187.72 43.9504,187.72 45.5,186.5C 46.4716,184.507 47.8049,184.174 49.5,185.5C 49.3186,189.348 47.3186,191.015 43.5,190.5C 39.7935,190.454 37.1268,188.787 35.5,185.5 Z"/></g>
<g><path style="opacity:1" fill="#606060" d="M 51.5,185.5 C 53.2252,185.843 53.7252,186.843 53,188.5C 52.4867,187.473 51.9867,186.473 51.5,185.5 Z"/></g>
<g><path style="opacity:1" fill="#72a2c6" d="M 66.5,194.5 C 66.5,192.833 66.5,191.167 66.5,189.5C 64.5328,189.739 62.6995,189.406 61,188.5C 59.7308,189.905 59.2308,191.571 59.5,193.5C 58.8476,192.551 58.5143,191.385 58.5,190C 58.3068,187.992 58.9735,186.492 60.5,185.5C 63.1215,183.001 65.6215,183.335 68,186.5C 68.6667,188.833 68.6667,191.167 68,193.5C 67.6174,194.056 67.1174,194.389 66.5,194.5 Z"/></g>
<g><path style="opacity:1" fill="#f2f6f9" d="M 60.5,185.5 C 62.9775,185.051 64.9775,185.717 66.5,187.5C 63.707,188.972 61.707,188.306 60.5,185.5 Z"/></g>
<g><path style="opacity:1" fill="#7e7e7e" d="M 115.5,188.5 C 113.167,188.5 110.833,188.5 108.5,188.5C 110.75,185.966 113.084,185.966 115.5,188.5 Z"/></g>
<g><path style="opacity:1" fill="#fbfcfd" d="M 66.5,194.5 C 63.8684,196.063 61.5351,195.73 59.5,193.5C 59.2308,191.571 59.7308,189.905 61,188.5C 62.6995,189.406 64.5328,189.739 66.5,189.5C 66.5,191.167 66.5,192.833 66.5,194.5 Z"/></g>
<g><path style="opacity:1" fill="#6f6f6f" d="M 35.5,185.5 C 33.4571,188.459 32.2905,191.792 32,195.5C 31.3482,192.406 31.6815,189.406 33,186.5C 33.6708,185.748 34.5041,185.414 35.5,185.5 Z"/></g>
<g><path style="opacity:1" fill="#919191" d="M 161.5,183.5 C 161.335,186.518 161.502,189.518 162,192.5C 162.671,193.252 163.504,193.586 164.5,193.5C 166.292,193.634 167.958,193.301 169.5,192.5C 169.5,193.167 169.5,193.833 169.5,194.5C 167.914,195.413 166.414,195.413 165,194.5C 164.517,195.448 164.351,196.448 164.5,197.5C 163.842,196.602 163.176,195.602 162.5,194.5C 161.817,194.863 161.15,195.196 160.5,195.5C 160.183,191.298 160.517,187.298 161.5,183.5 Z"/></g>
<g><path style="opacity:1" fill="#787878" d="M 115.5,188.5 C 116.496,188.414 117.329,188.748 118,189.5C 119.52,193.375 119.854,197.375 119,201.5C 118.623,202.942 117.79,203.942 116.5,204.5C 116.167,204.5 115.833,204.5 115.5,204.5C 117.485,201.879 118.485,198.879 118.5,195.5C 105.296,194.4 105.296,193.567 118.5,193C 117.614,191.385 116.614,189.885 115.5,188.5 Z"/></g>
<g><path style="opacity:1" fill="#313131" d="M 108.5,188.5 C 107.315,189.857 106.315,191.357 105.5,193C 105.193,196.39 105.527,199.89 106.5,203.5C 105.883,203.389 105.383,203.056 105,202.5C 104.333,198.5 104.333,194.5 105,190.5C 105.816,189.177 106.983,188.511 108.5,188.5 Z"/></g>
<g><path style="opacity:1" fill="#f7f7f7" d="M 108.5,188.5 C 110.833,188.5 113.167,188.5 115.5,188.5C 116.614,189.885 117.614,191.385 118.5,193C 105.296,193.567 105.296,194.4 118.5,195.5C 118.485,198.879 117.485,201.879 115.5,204.5C 114.833,204.5 114.5,204.833 114.5,205.5C 111.549,205.713 108.882,205.046 106.5,203.5C 105.527,199.89 105.193,196.39 105.5,193C 106.315,191.357 107.315,189.857 108.5,188.5 Z"/></g>
<g><path style="opacity:1" fill="#f3f3f3" d="M 169.5,194.5 C 169.5,195.5 169.5,196.5 169.5,197.5C 167.716,198.72 166.05,198.72 164.5,197.5C 164.351,196.448 164.517,195.448 165,194.5C 166.414,195.413 167.914,195.413 169.5,194.5 Z"/></g>
<g><path style="opacity:1" fill="#5c95bf" d="M 59.5,193.5 C 61.5351,195.73 63.8684,196.063 66.5,194.5C 67.8333,195.833 69.1667,197.167 70.5,198.5C 68.965,197.646 67.6316,197.646 66.5,198.5C 65.2209,197.032 63.5542,196.365 61.5,196.5C 61.5,197.5 61.5,198.5 61.5,199.5C 60.5326,198.194 59.1993,197.527 57.5,197.5C 58.8062,196.533 59.4729,195.199 59.5,193.5 Z"/></g>
<g><path style="opacity:1" fill="#2b6792" d="M 164.5,197.5 C 166.05,198.72 167.716,198.72 169.5,197.5C 170.222,196.449 171.222,195.782 172.5,195.5C 174.646,195.696 174.812,196.696 173,198.5C 167.666,204.166 163.333,203.499 160,196.5C 159.282,197.451 158.449,197.617 157.5,197C 158.244,195.961 159.244,195.461 160.5,195.5C 161.15,195.196 161.817,194.863 162.5,194.5C 163.176,195.602 163.842,196.602 164.5,197.5 Z"/></g>
<g><path style="opacity:1" fill="#acc7dc" d="M 66.5,198.5 C 65.1214,200.597 63.4547,200.93 61.5,199.5C 61.5,198.5 61.5,197.5 61.5,196.5C 63.5542,196.365 65.2209,197.032 66.5,198.5 Z"/></g>
<g><path style="opacity:1" fill="#4588b7" d="M 70.5,198.5 C 71.1174,198.611 71.6174,198.944 72,199.5C 72.6667,201.5 72.6667,203.5 72,205.5C 71.5604,203.134 71.0604,200.801 70.5,198.5 Z"/></g>
<g><path style="opacity:1" fill="#8fb5d1" d="M 57.5,197.5 C 56.0806,199.927 55.0806,202.594 54.5,205.5C 53.4879,203.163 53.6546,200.83 55,198.5C 55.6708,197.748 56.5041,197.414 57.5,197.5 Z"/></g>
<g><path style="opacity:1" fill="#757575" d="M 176.5,198.5 C 178.385,200.795 178.885,203.462 178,206.5C 177.178,203.883 176.678,201.216 176.5,198.5 Z"/></g>
<g><path style="opacity:1" fill="#6c6d6f" d="M 106.5,203.5 C 108.882,205.046 111.549,205.713 114.5,205.5C 113.287,207.676 111.62,208.009 109.5,206.5C 108.614,207.325 108.281,208.325 108.5,209.5C 107.528,207.507 106.195,207.174 104.5,208.5C 102.95,209.441 101.284,210.107 99.5,210.5C 101.428,208.526 103.761,207.026 106.5,206C 107.598,205.23 107.598,204.397 106.5,203.5 Z"/></g>
<g><path style="opacity:1" fill="#f5f5f5" d="M 114.5,205.5 C 115.451,206.919 115.784,208.585 115.5,210.5C 112.784,212.086 110.45,211.753 108.5,209.5C 108.281,208.325 108.614,207.325 109.5,206.5C 111.62,208.009 113.287,207.676 114.5,205.5 Z"/></g>
<g><path style="opacity:1" fill="#17161b" d="M 114.5,205.5 C 114.5,204.833 114.833,204.5 115.5,204.5C 115.833,204.5 116.167,204.5 116.5,204.5C 116.782,205.778 117.449,206.778 118.5,207.5C 117.1,208.1 116.1,209.1 115.5,210.5C 115.784,208.585 115.451,206.919 114.5,205.5 Z"/></g>
<g><path style="opacity:1" fill="#484848" d="M 119.5,208.5 C 119.5,208.167 119.5,207.833 119.5,207.5C 124.613,208.541 126.946,211.708 126.5,217C 126.333,218.5 126.167,220 126,221.5C 126.911,215.451 124.745,211.118 119.5,208.5 Z"/></g>
<g><path style="opacity:1" fill="#1f6d9e" d="M 108.5,209.5 C 110.45,211.753 112.784,212.086 115.5,210.5C 116.1,209.1 117.1,208.1 118.5,207.5C 118.833,207.5 119.167,207.5 119.5,207.5C 119.5,207.833 119.5,208.167 119.5,208.5C 119.025,210.784 118.025,212.784 116.5,214.5C 115.391,214.557 114.391,214.89 113.5,215.5C 108.4,215.723 105.4,213.389 104.5,208.5C 106.195,207.174 107.528,207.507 108.5,209.5 Z"/></g>
<g><path style="opacity:1" fill="#555555" d="M 99.5,210.5 C 98.9196,214.142 98.4196,217.809 98,221.5C 97.3333,218.5 97.3333,215.5 98,212.5C 98.2784,211.584 98.7784,210.918 99.5,210.5 Z"/></g>
<g><path style="opacity:1" fill="#364b5f" d="M 116.5,214.5 C 119.152,216.462 119.152,218.462 116.5,220.5C 114.244,219.579 113.244,217.912 113.5,215.5C 114.391,214.89 115.391,214.557 116.5,214.5 Z"/></g>
</svg>
