<?xml version="1.0" standalone="no"?>
<!DOCTYPE svg PUBLIC "-//W3C//DTD SVG 20010904//EN"
 "http://www.w3.org/TR/2001/REC-SVG-20010904/DTD/svg10.dtd">
<svg version="1.0" xmlns="http://www.w3.org/2000/svg"
 width="225.000000pt" height="225.000000pt" viewBox="0 0 225.000000 225.000000"
 preserveAspectRatio="xMidYMid meet">

<g transform="translate(0.000000,225.000000) scale(0.100000,-0.100000)"
fill="#000000" stroke="none">
<path d="M1155 1837 c-22 -8 -58 -23 -80 -34 -41 -21 -123 -101 -144 -141 -12
-22 -14 -22 -272 -22 -221 0 -266 -3 -295 -16 -63 -30 -64 -36 -64 -415 l0
-341 34 -34 34 -34 206 0 206 0 0 -70 0 -70 -39 0 c-23 0 -48 -8 -63 -19 -27
-22 -81 -115 -71 -125 10 -10 661 -7 668 4 8 13 -53 118 -75 130 -10 6 -37 10
-59 10 l-41 0 0 70 0 70 200 0 c294 0 290 -4 290 283 0 125 4 188 11 193 6 3
33 -4 60 -17 37 -17 48 -27 43 -38 -18 -44 -17 -45 138 -122 l153 -77 34 61
c39 73 51 59 -135 154 l-135 68 -18 -25 -19 -24 -51 24 c-28 13 -51 25 -51 26
0 1 7 31 16 66 45 175 -40 359 -203 440 -56 27 -78 32 -152 35 -52 2 -102 -2
-126 -10z m273 -57 c262 -140 251 -511 -20 -635 -117 -53 -250 -39 -357 39
-169 124 -189 377 -43 529 78 81 149 108 272 104 74 -3 93 -7 148 -37z m-533
-192 c-3 -13 -9 -55 -12 -94 -15 -200 117 -368 320 -405 109 -20 235 17 320
94 l37 35 0 -129 0 -129 -620 0 -620 0 0 296 0 296 29 29 29 29 262 0 262 0
-7 -22z m1005 -383 l130 -65 -20 -40 c-11 -22 -25 -40 -31 -40 -5 0 -66 30
-134 66 l-125 66 20 39 c11 21 23 39 25 39 3 0 64 -29 135 -65z m-340 -294 c0
-17 -10 -42 -24 -58 l-24 -28 -556 -3 c-611 -3 -600 -4 -626 57 -26 65 -63 61
615 61 l615 0 0 -29z m-485 -181 l0 -65 -132 -3 -133 -3 0 71 0 71 133 -3 132
-3 0 -65z m113 -106 c19 -13 52 -63 52 -79 0 -3 -135 -5 -300 -5 l-300 0 20
39 c11 22 28 45 37 50 11 6 108 11 243 11 189 0 229 -3 248 -16z"/>
<path d="M1200 1663 c0 -10 4 -24 9 -32 6 -10 0 -21 -20 -38 -16 -14 -29 -31
-29 -39 0 -21 -19 -7 -31 23 -5 13 -14 21 -19 18 -14 -8 -3 -44 20 -70 12 -14
19 -41 22 -86 3 -57 1 -69 -14 -78 -25 -15 -42 -61 -29 -74 7 -7 14 -1 21 19
16 41 29 45 62 21 42 -31 108 -30 142 2 25 24 26 24 46 6 11 -10 20 -24 20
-31 0 -7 5 -16 10 -19 21 -13 9 47 -13 68 -21 20 -23 29 -19 91 3 49 10 74 23
87 19 19 27 75 9 64 -5 -3 -10 -12 -10 -19 0 -8 -6 -19 -14 -25 -11 -10 -16
-8 -21 8 -3 11 -17 29 -31 40 -21 16 -23 23 -15 40 14 25 14 41 1 41 -6 0 -15
-11 -20 -25 -7 -18 -17 -25 -35 -25 -17 0 -29 8 -37 25 -13 29 -28 33 -28 8z
m125 -88 c23 -22 25 -32 25 -110 0 -78 -2 -88 -25 -110 -32 -33 -89 -34 -122
-3 -21 19 -23 30 -23 110 0 81 2 91 25 113 16 17 35 25 60 25 25 0 44 -8 60
-25z"/>
<path d="M1217 1562 c-10 -10 -17 -22 -17 -25 0 -4 29 -7 65 -7 68 0 79 9 43
34 -30 21 -71 20 -91 -2z"/>
<path d="M1200 1446 c0 -45 5 -69 16 -80 28 -29 34 -17 34 64 0 79 0 80 -25
80 -24 0 -25 -2 -25 -64z"/>
<path d="M1270 1430 c0 -60 3 -80 13 -80 30 0 47 35 47 98 l0 62 -30 0 -30 0
0 -80z"/>
<path d="M434 1475 c-7 -18 3 -35 22 -35 8 0 14 10 14 25 0 27 -27 35 -36 10z"/>
<path d="M540 1465 l0 -26 93 3 c84 3 92 5 92 23 0 18 -8 20 -92 23 l-93 3 0
-26z"/>
<path d="M434 1376 c-7 -19 3 -36 22 -36 10 0 14 8 12 22 -4 26 -26 36 -34 14z"/>
<path d="M540 1365 l0 -26 93 3 c84 3 92 5 92 23 0 18 -8 20 -92 23 l-93 3 0
-26z"/>
<path d="M437 1284 c-16 -16 -7 -44 14 -44 15 0 20 5 17 22 -3 22 -19 33 -31
22z"/>
<path d="M540 1265 l0 -26 93 3 c84 3 92 5 92 23 0 18 -8 20 -92 23 l-93 3 0
-26z"/>
</g>
</svg>
