<?xml version="1.0" encoding="UTF-8"?>
<!DOCTYPE svg PUBLIC "-//W3C//DTD SVG 1.1//EN" "http://www.w3.org/Graphics/SVG/1.1/DTD/svg11.dtd">
<svg xmlns="http://www.w3.org/2000/svg" version="1.1" width="1200px" height="1200px" style="shape-rendering:geometricPrecision; text-rendering:geometricPrecision; image-rendering:optimizeQuality; fill-rule:evenodd; clip-rule:evenodd" xmlns:xlink="http://www.w3.org/1999/xlink">
<g><path style="opacity:0.947" fill="#aaa7a5" d="M 302.5,174.5 C 500.5,174.5 698.5,174.5 896.5,174.5C 896.5,457.833 896.5,741.167 896.5,1024.5C 698.5,1024.5 500.5,1024.5 302.5,1024.5C 302.5,741.167 302.5,457.833 302.5,174.5 Z M 316.5,187.5 C 505.167,187.5 693.833,187.5 882.5,187.5C 882.5,462.167 882.5,736.833 882.5,1011.5C 693.833,1011.5 505.167,1011.5 316.5,1011.5C 316.5,736.833 316.5,462.167 316.5,187.5 Z M 654.5,721.5 C 663.37,720.683 669.536,724.349 673,732.5C 674.642,737.708 675.642,743.041 676,748.5C 676.667,768.833 676.667,789.167 676,809.5C 675.619,816.356 674.286,823.023 672,829.5C 668.334,835.336 663.001,838.336 656,838.5C 648.125,838.676 642.458,835.342 639,828.5C 636.772,822.36 635.439,816.026 635,809.5C 634.333,789.833 634.333,770.167 635,750.5C 635.381,743.644 636.714,736.977 639,730.5C 642.667,724.755 647.834,721.755 654.5,721.5 Z M 769.5,723.5 C 781.634,722.133 788.134,727.467 789,739.5C 789.667,749.5 789.667,759.5 789,769.5C 788.046,781.623 781.546,787.623 769.5,787.5C 769.5,766.167 769.5,744.833 769.5,723.5 Z"/></g>
<g><path style="opacity:0.986" fill="#aaa8a6" d="M 574.5,305.5 C 590.837,305.333 607.17,305.5 623.5,306C 624.416,306.374 625.25,306.874 626,307.5C 627.645,329.745 627.978,352.078 627,374.5C 626.242,376.91 624.575,377.91 622,377.5C 586.997,369.612 557.997,379.279 535,406.5C 514.721,437.291 514.388,468.291 534,499.5C 556.927,527.81 586.26,537.81 622,529.5C 623.436,529.559 624.769,529.892 626,530.5C 627.645,552.745 627.978,575.078 627,597.5C 626.5,599.333 625.333,600.5 623.5,601C 606.833,601.667 590.167,601.667 573.5,601C 572.667,600.167 571.833,599.333 571,598.5C 568.665,589.162 566.332,579.828 564,570.5C 556.1,567.717 548.433,564.384 541,560.5C 533.418,565.709 525.584,570.543 517.5,575C 515.5,575.667 513.5,575.667 511.5,575C 500,563.5 488.5,552 477,540.5C 476.333,538.833 476.333,537.167 477,535.5C 482.218,527.565 487.051,519.398 491.5,511C 488.012,504.036 485.012,496.87 482.5,489.5C 472.239,486.394 462.072,483.061 452,479.5C 451.333,462.167 451.333,444.833 452,427.5C 452.5,427 453,426.5 453.5,426C 462.828,423.668 472.162,421.335 481.5,419C 484.807,411.379 488.141,403.712 491.5,396C 487.051,387.602 482.218,379.435 477,371.5C 476.333,369.833 476.333,368.167 477,366.5C 488.5,355 500,343.5 511.5,332C 513.5,331.333 515.5,331.333 517.5,332C 525.334,337.085 533.334,341.918 541.5,346.5C 548.808,342.51 556.474,339.51 564.5,337.5C 566.345,327.778 568.512,318.111 571,308.5C 572.145,307.364 573.312,306.364 574.5,305.5 Z"/></g>
<g><path style="opacity:0.954" fill="#aaa7a6" d="M 669.5,327.5 C 687.349,325.848 695.182,333.848 693,351.5C 690.974,357.526 686.974,361.526 681,363.5C 680.667,379.5 680.333,395.5 680,411.5C 679.5,412 679,412.5 678.5,413C 667.167,413.667 655.833,413.667 644.5,413C 641.651,409.984 638.651,407.15 635.5,404.5C 647.148,403.501 658.814,403.168 670.5,403.5C 670.667,390.163 670.5,376.829 670,363.5C 661.738,360.165 657.238,353.999 656.5,345C 657.586,336.627 661.919,330.794 669.5,327.5 Z"/></g>
<g><path style="opacity:0.93" fill="#aaa7a5" d="M 710.5,398.5 C 714.354,398.491 716.687,400.325 717.5,404C 711.253,413.921 704.587,423.587 697.5,433C 690.434,434.132 683.267,434.632 676,434.5C 669.5,434.167 663,433.833 656.5,433.5C 655.167,430.833 653.833,428.167 652.5,425.5C 665.154,424.667 677.82,424.167 690.5,424C 697.061,415.289 703.728,406.789 710.5,398.5 Z"/></g>
<g><path style="opacity:0.989" fill="#a9a7a5" d="M 589.5,401.5 C 620.303,398.972 640.47,412.305 650,441.5C 654.633,471.831 642.8,492.664 614.5,504C 590.757,509.864 571.257,503.364 556,484.5C 543.057,463.267 543.39,442.267 557,421.5C 565.498,410.844 576.331,404.177 589.5,401.5 Z"/></g>
<g><path style="opacity:0.959" fill="#a9a7a5" d="M 723.5,435.5 C 740.468,433.969 748.301,441.635 747,458.5C 741.937,470.858 733.104,474.692 720.5,470C 716.248,467.581 713.248,464.081 711.5,459.5C 694.179,458.5 676.846,458.167 659.5,458.5C 659.5,455.167 659.5,451.833 659.5,448.5C 676.846,448.833 694.179,448.5 711.5,447.5C 713.909,441.758 717.909,437.758 723.5,435.5 Z"/></g>
<g><path style="opacity:0.932" fill="#a9a7a5" d="M 656.5,472.5 C 669.883,472.185 683.216,472.518 696.5,473.5C 704.112,482.937 711.112,492.771 717.5,503C 716.035,507.901 713.035,509.234 708.5,507C 702.711,499.255 697.044,491.422 691.5,483.5C 678.5,482.833 665.5,482.167 652.5,481.5C 654.12,478.596 655.453,475.596 656.5,472.5 Z"/></g>
<g><path style="opacity:0.953" fill="#a9a7a5" d="M 644.5,493.5 C 655.838,493.333 667.172,493.5 678.5,494C 679,494.5 679.5,495 680,495.5C 680.5,511.83 680.667,528.163 680.5,544.5C 686.952,545.489 691.118,549.155 693,555.5C 695.544,569.756 689.71,578.09 675.5,580.5C 664.156,579.156 657.823,572.823 656.5,561.5C 657.077,556.595 658.91,552.262 662,548.5C 664.397,546.218 667.231,544.884 670.5,544.5C 670.5,530.833 670.5,517.167 670.5,503.5C 658.829,503.667 647.162,503.5 635.5,503C 638.704,499.964 641.704,496.797 644.5,493.5 Z"/></g>
<g><path style="opacity:0.966" fill="#a9a7a5" d="M 425.5,716.5 C 439.478,715.663 453.145,717.33 466.5,721.5C 469.174,720.485 471.841,719.485 474.5,718.5C 475.154,729.992 475.821,741.492 476.5,753C 476.825,757.157 475.158,758.324 471.5,756.5C 467.677,747.512 462.843,739.178 457,731.5C 444.531,718.654 432.197,718.32 420,730.5C 415.325,738.858 412.658,747.858 412,757.5C 411.333,771.833 411.333,786.167 412,800.5C 412.72,808.046 414.386,815.379 417,822.5C 424.174,837.336 435.341,841.503 450.5,835C 460.665,826.197 467.998,815.364 472.5,802.5C 474.878,801.044 476.878,801.377 478.5,803.5C 477.687,815.454 477.187,827.454 477,839.5C 476.5,840 476,840.5 475.5,841C 473.174,839.607 470.507,838.774 467.5,838.5C 450.782,843.542 433.782,844.709 416.5,842C 392.475,835.64 378.642,820.14 375,795.5C 372.124,776.011 375.457,757.678 385,740.5C 395.28,726.948 408.78,718.948 425.5,716.5 Z"/></g>
<g><path style="opacity:0.976" fill="#aaa8a6" d="M 647.5,716.5 C 691.681,714.513 714.014,735.679 714.5,780C 715.246,799.777 708.912,816.777 695.5,831C 678.164,842.725 659.164,846.392 638.5,842C 616.667,837.5 603.5,824.333 599,802.5C 596.494,786.016 597.16,769.682 601,753.5C 609.08,731.724 624.58,719.391 647.5,716.5 Z M 654.5,721.5 C 647.834,721.755 642.667,724.755 639,730.5C 636.714,736.977 635.381,743.644 635,750.5C 634.333,770.167 634.333,789.833 635,809.5C 635.439,816.026 636.772,822.36 639,828.5C 642.458,835.342 648.125,838.676 656,838.5C 663.001,838.336 668.334,835.336 672,829.5C 674.286,823.023 675.619,816.356 676,809.5C 676.667,789.167 676.667,768.833 676,748.5C 675.642,743.041 674.642,737.708 673,732.5C 669.536,724.349 663.37,720.683 654.5,721.5 Z"/></g>
<g><path style="opacity:0.972" fill="#a9a7a5" d="M 482.5,718.5 C 501.743,718.174 520.91,718.507 540,719.5C 540.684,720.784 540.517,721.951 539.5,723C 535.833,723.333 532.167,723.667 528.5,724C 537.729,751.186 547.062,778.353 556.5,805.5C 566.353,778.609 576.02,751.609 585.5,724.5C 581.541,723.673 577.541,723.173 573.5,723C 572.483,721.951 572.316,720.784 573,719.5C 582.083,718.515 591.249,718.182 600.5,718.5C 600.5,720.167 600.5,721.833 600.5,723.5C 597.813,723.336 595.146,723.503 592.5,724C 578.277,763.333 564.444,802.833 551,842.5C 548.254,843.143 545.421,843.476 542.5,843.5C 539.387,843.438 536.554,842.771 534,841.5C 519.667,802.5 505.333,763.5 491,724.5C 488.281,723.556 485.448,723.223 482.5,723.5C 482.5,721.833 482.5,720.167 482.5,718.5 Z"/></g>
<g><path style="opacity:0.975" fill="#a9a7a5" d="M 723.5,718.5 C 748.198,718.081 772.864,718.581 797.5,720C 821.97,725.518 831.47,740.685 826,765.5C 821.439,778.048 812.606,785.881 799.5,789C 789.606,791.05 779.606,791.883 769.5,791.5C 769.5,806.5 769.5,821.5 769.5,836.5C 776.532,836.17 783.532,836.503 790.5,837.5C 791.833,838.5 791.833,839.5 790.5,840.5C 768.174,841.666 745.841,841.833 723.5,841C 722.62,839.644 722.286,838.144 722.5,836.5C 726.167,836.5 729.833,836.5 733.5,836.5C 733.5,798.833 733.5,761.167 733.5,723.5C 729.833,723.5 726.167,723.5 722.5,723.5C 722.366,721.708 722.699,720.042 723.5,718.5 Z M 769.5,723.5 C 769.5,744.833 769.5,766.167 769.5,787.5C 781.546,787.623 788.046,781.623 789,769.5C 789.667,759.5 789.667,749.5 789,739.5C 788.134,727.467 781.634,722.133 769.5,723.5 Z"/></g>
</svg>
